<svg width="84" height="84" viewBox="0 0 84 84" fill="none" xmlns="http://www.w3.org/2000/svg">
<rect x="0.75" y="0.75" width="82.5" height="82.5" rx="7.25" stroke="#0CAF89" stroke-width="1.5" stroke-dasharray="2 2"/>
<rect x="7.00024" y="7" width="70" height="70" rx="8" fill="#F4FFF7"/>
<path fill-rule="evenodd" clip-rule="evenodd" d="M29.5771 30.828V32.5786H38.3301V30.828H29.5771ZM29.5771 25.5762V27.3268H41.8313V25.5762H29.5771ZM29.5771 36.0798V37.8304L54.0855 37.8305V36.0799L29.5771 36.0798ZM29.5771 41.3316V43.0822H47.0831V41.3316H29.5771ZM29.5771 46.7494V48.5H38.3301V46.7494H29.5771Z" fill="#0CAF89"/>
<path d="M44.5002 52V59M48.0002 55.5L41.0002 55.5" stroke="#0CAF89" stroke-width="1.5" stroke-linecap="round"/>
<g clip-path="url(#clip0_1076_156007)">
<path d="M54.9576 53.334C54.7278 53.6786 54.821 54.1443 55.1656 54.374C55.5102 54.6038 55.9759 54.5107 56.2057 54.166L54.9576 53.334ZM56.6949 52.0801L57.319 52.4961L56.6949 52.0801ZM62.385 52.0801L63.009 51.664L62.385 52.0801ZM62.8743 54.166C63.104 54.5107 63.5697 54.6038 63.9143 54.374C64.259 54.1443 64.3521 53.6786 64.1223 53.334L62.8743 54.166ZM61.165 59.6875C61.165 60.585 60.4374 61.3125 59.54 61.3125V62.8125C61.2658 62.8125 62.665 61.4134 62.665 59.6875H61.165ZM59.54 61.3125C58.6425 61.3125 57.915 60.585 57.915 59.6875H56.415C56.415 61.4134 57.8141 62.8125 59.54 62.8125V61.3125ZM57.915 59.6875C57.915 58.79 58.6425 58.0625 59.54 58.0625V56.5625C57.8141 56.5625 56.415 57.9616 56.415 59.6875H57.915ZM59.54 58.0625C60.4374 58.0625 61.165 58.79 61.165 59.6875H62.665C62.665 57.9616 61.2658 56.5625 59.54 56.5625V58.0625ZM56.2057 54.166L57.319 52.4961L56.0709 51.664L54.9576 53.334L56.2057 54.166ZM58.0123 52.125H61.0676V50.625H58.0123V52.125ZM61.761 52.4961L62.8743 54.166L64.1223 53.334L63.009 51.664L61.761 52.4961ZM61.0676 52.125C61.3462 52.125 61.6064 52.2643 61.761 52.4961L63.009 51.664C62.5763 51.0149 61.8477 50.625 61.0676 50.625V52.125ZM57.319 52.4961C57.4735 52.2643 57.7337 52.125 58.0123 52.125V50.625C57.2322 50.625 56.5036 51.0149 56.0709 51.664L57.319 52.4961ZM54.79 54.5H64.29V53H54.79V54.5ZM66.7066 56.9167V62.4583H68.2066V56.9167H66.7066ZM64.29 64.875H54.79V66.375H64.29V64.875ZM52.3733 62.4583V56.9167H50.8733V62.4583H52.3733ZM54.79 64.875C53.4553 64.875 52.3733 63.793 52.3733 62.4583H50.8733C50.8733 64.6214 52.6268 66.375 54.79 66.375V64.875ZM66.7066 62.4583C66.7066 63.793 65.6246 64.875 64.29 64.875V66.375C66.4531 66.375 68.2066 64.6214 68.2066 62.4583H66.7066ZM64.29 54.5C65.6246 54.5 66.7066 55.582 66.7066 56.9167H68.2066C68.2066 54.7536 66.4531 53 64.29 53V54.5ZM54.79 53C52.6268 53 50.8733 54.7536 50.8733 56.9167H52.3733C52.3733 55.582 53.4553 54.5 54.79 54.5V53Z" fill="#0CAF89"/>
</g>
<path d="M46.5002 65H30.0002C27.7911 65 26.0002 63.2091 26.0002 61V24C26.0002 21.7909 27.7911 20 30.0002 20H54.0002C56.2094 20 58.0002 21.7909 58.0002 24V46" stroke="#0CAF89" stroke-width="1.5" stroke-linecap="round"/>
<defs>
<clipPath id="clip0_1076_156007">
<rect width="19" height="19" fill="white" transform="translate(50.04 49)"/>
</clipPath>
</defs>
</svg>
