<svg width="24" height="24" viewBox="0 0 24 24" fill="none" xmlns="http://www.w3.org/2000/svg">
<path d="M2 12V18C2 20.2091 3.79086 22 6 22H18C20.2091 22 22 20.2091 22 18V12M2 12L2 6C2 3.79086 3.79086 2 6 2H18C20.2091 2 22 3.79086 22 6V12M2 12L22 12M13.5 5.5H6M6 18.5H8.5M10 8.5H6M6 15.5H13" stroke="#6CA181" stroke-width="1.5" stroke-linecap="round" stroke-linejoin="round"/>
<path d="M18 17.5C18 18.0523 17.5523 18.5 17 18.5C16.4477 18.5 16 18.0523 16 17.5C16 16.9477 16.4477 16.5 17 16.5C17.5523 16.5 18 16.9477 18 17.5Z" fill="#6CA181"/>
<path d="M18 6C18 6.55228 17.5523 7 17 7C16.4477 7 16 6.55228 16 6C16 5.44772 16.4477 5 17 5C17.5523 5 18 5.44772 18 6Z" fill="#6CA181"/>
</svg>
