<svg width="48" height="48" viewBox="0 0 48 48" fill="none" xmlns="http://www.w3.org/2000/svg">
<g clip-path="url(#clip0_904_335314)">
<rect width="48" height="48" rx="8" fill="#F9F9F9"/>
<path d="M21 13.7998H16.2C15.5641 13.8017 14.9548 14.0552 14.5051 14.5048C14.0554 14.9545 13.8019 15.5639 13.8 16.1998V20.9998C13.8019 21.6357 14.0554 22.2451 14.5051 22.6948C14.9548 23.1444 15.5641 23.3979 16.2 23.3998H21C21.636 23.3979 22.2453 23.1444 22.695 22.6948C23.1447 22.2451 23.3981 21.6357 23.4 20.9998V16.1998C23.3981 15.5639 23.1447 14.9545 22.695 14.5048C22.2453 14.0552 21.636 13.8017 21 13.7998ZM21 20.9998H16.2V16.1998H21V20.9998ZM21 24.5998H16.2C15.5641 24.6017 14.9548 24.8552 14.5051 25.3048C14.0554 25.7545 13.8019 26.3639 13.8 26.9998V31.7998C13.8019 32.4357 14.0554 33.0451 14.5051 33.4948C14.9548 33.9444 15.5641 34.1979 16.2 34.1998H21C21.636 34.1979 22.2453 33.9444 22.695 33.4948C23.1447 33.0451 23.3981 32.4357 23.4 31.7998V26.9998C23.3981 26.3639 23.1447 25.7545 22.695 25.3048C22.2453 24.8552 21.636 24.6017 21 24.5998ZM21 31.7998H16.2V26.9998H21V31.7998ZM31.8 13.7998H27C26.3641 13.8017 25.7548 14.0552 25.3051 14.5048C24.8554 14.9545 24.6019 15.5639 24.6 16.1998V20.9998C24.6019 21.6357 24.8554 22.2451 25.3051 22.6948C25.7548 23.1444 26.3641 23.3979 27 23.3998H31.8C32.436 23.3979 33.0453 23.1444 33.495 22.6948C33.9447 22.2451 34.1981 21.6357 34.2 20.9998V16.1998C34.1981 15.5639 33.9447 14.9545 33.495 14.5048C33.0453 14.0552 32.436 13.8017 31.8 13.7998ZM31.8 20.9998H27V16.1998H31.8V20.9998ZM18 19.7998H19.2C19.3557 19.7892 19.5022 19.7225 19.6125 19.6122C19.7228 19.5019 19.7894 19.3554 19.8 19.1998V17.9998C19.7894 17.8442 19.7228 17.6977 19.6125 17.5874C19.5022 17.4771 19.3557 17.4105 19.2 17.3998H18C17.8444 17.4105 17.6979 17.4771 17.5876 17.5874C17.4773 17.6977 17.4107 17.8442 17.4 17.9998V19.1998C17.4107 19.3554 17.4773 19.5019 17.5876 19.6122C17.6979 19.7225 17.8444 19.7892 18 19.7998ZM18 30.5998H19.2C19.3557 30.5892 19.5022 30.5225 19.6125 30.4122C19.7228 30.3019 19.7894 30.1554 19.8 29.9998V28.7998C19.7894 28.6442 19.7228 28.4977 19.6125 28.3874C19.5022 28.2771 19.3557 28.2105 19.2 28.1998H18C17.8444 28.2105 17.6979 28.2771 17.5876 28.3874C17.4773 28.4977 17.4107 28.6442 17.4 28.7998V29.9998C17.4107 30.1554 17.4773 30.3019 17.5876 30.4122C17.6979 30.5225 17.8444 30.5892 18 30.5998ZM28.8 19.7998H30C30.1557 19.7892 30.3022 19.7225 30.4125 19.6122C30.5228 19.5019 30.5894 19.3554 30.6 19.1998V17.9998C30.5894 17.8442 30.5228 17.6977 30.4125 17.5874C30.3022 17.4771 30.1557 17.4105 30 17.3998H28.8C28.6444 17.4105 28.4979 17.4771 28.3876 17.5874C28.2773 17.6977 28.2107 17.8442 28.2 17.9998V19.1998C28.2107 19.3554 28.2773 19.5019 28.3876 19.6122C28.4979 19.7225 28.6444 19.7892 28.8 19.7998ZM25.2 29.3998H26.4C26.5557 29.3892 26.7022 29.3225 26.8125 29.2122C26.9228 29.1019 26.9894 28.9554 27 28.7998V27.5998C27.0107 27.4442 27.0773 27.2977 27.1876 27.1874C27.2979 27.0771 27.4444 27.0105 27.6 26.9998H28.8C28.9557 26.9892 29.1022 26.9225 29.2125 26.8122C29.3228 26.7019 29.3894 26.5554 29.4 26.3998V25.1998C29.3894 25.0442 29.3228 24.8977 29.2125 24.7874C29.1022 24.6771 28.9557 24.6105 28.8 24.5998H25.2C25.0444 24.6105 24.8979 24.6771 24.7876 24.7874C24.6773 24.8977 24.6107 25.0442 24.6 25.1998V28.7998C24.6107 28.9554 24.6773 29.1019 24.7876 29.2122C24.8979 29.3225 25.0444 29.3892 25.2 29.3998ZM33.6 24.5998H32.4C32.2444 24.6105 32.0979 24.6771 31.9876 24.7874C31.8773 24.8977 31.8107 25.0442 31.8 25.1998V28.7998C31.8107 28.9554 31.8773 29.1019 31.9876 29.2122C32.0979 29.3225 32.2444 29.3892 32.4 29.3998H33.6C33.7557 29.3892 33.9022 29.3225 34.0125 29.2122C34.1228 29.1019 34.1894 28.9554 34.2 28.7998V25.1998C34.1894 25.0442 34.1228 24.8977 34.0125 24.7874C33.9022 24.6771 33.7557 24.6105 33.6 24.5998ZM26.4 31.7998H25.2C25.0444 31.8105 24.8979 31.8771 24.7876 31.9874C24.6773 32.0977 24.6107 32.2442 24.6 32.3998V33.5998C24.6107 33.7554 24.6773 33.9019 24.7876 34.0122C24.8979 34.1225 25.0444 34.1892 25.2 34.1998H26.4C26.5557 34.1892 26.7022 34.1225 26.8125 34.0122C26.9228 33.9019 26.9894 33.7554 27 33.5998V32.3998C26.9894 32.2442 26.9228 32.0977 26.8125 31.9874C26.7022 31.8771 26.5557 31.8105 26.4 31.7998ZM33.6 31.7998H32.4C32.2444 31.7892 32.0979 31.7225 31.9876 31.6122C31.8773 31.5019 31.8107 31.3554 31.8 31.1998V29.9998C31.7894 29.8442 31.7228 29.6977 31.6125 29.5874C31.5022 29.4771 31.3557 29.4105 31.2 29.3998H27.6C27.4444 29.4105 27.2979 29.4771 27.1876 29.5874C27.0773 29.6977 27.0107 29.8442 27 29.9998V31.1998C27.0107 31.3554 27.0773 31.5019 27.1876 31.6122C27.2979 31.7225 27.4444 31.7892 27.6 31.7998H28.8C28.9557 31.8105 29.1022 31.8771 29.2125 31.9874C29.3228 32.0977 29.3894 32.2442 29.4 32.3998V33.5998C29.4107 33.7554 29.4773 33.9019 29.5876 34.0122C29.6979 34.1225 29.8444 34.1892 30 34.1998H33.6C33.7557 34.1892 33.9022 34.1225 34.0125 34.0122C34.1228 33.9019 34.1894 33.7554 34.2 33.5998V32.3998C34.1894 32.2442 34.1228 32.0977 34.0125 31.9874C33.9022 31.8771 33.7557 31.8105 33.6 31.7998Z" fill="#0CAF89"/>
</g>
<defs>
<clipPath id="clip0_904_335314">
<rect width="48" height="48" fill="white"/>
</clipPath>
</defs>
</svg>
