<svg width="24" height="24" viewBox="0 0 24 24" fill="none" xmlns="http://www.w3.org/2000/svg">
<path fill-rule="evenodd" clip-rule="evenodd" d="M18.4296 3.20277C18.1592 2.93241 17.7209 2.93241 17.4505 3.20277C17.1802 3.47313 17.1802 3.91148 17.4505 4.18184L18.2666 4.99789L16.1454 7.11906L16.1452 7.11923L15.9819 6.95587C15.2609 6.2349 14.092 6.2349 13.371 6.95587L9.93644 10.3904L16.7126 11.4469L17.2873 10.8721C18.0083 10.1512 18.0083 8.98226 17.2873 8.26129L17.1243 8.0983L17.1245 8.09813L19.2457 5.97696L20.0614 6.7927C20.3318 7.06306 20.7701 7.06306 21.0405 6.7927C21.3108 6.52233 21.3108 6.08399 21.0405 5.81363L19.7476 4.5208L19.7354 4.5082L19.7227 4.49591L18.4296 3.20277ZM8.7241 11.6028L8.58445 11.7424C8.30199 12.0249 8.11877 12.3913 8.06228 12.7868L7.84471 14.3098C7.79579 14.6522 7.8431 14.9808 7.96345 15.2726L3.21423 19.807C2.93768 20.071 2.92754 20.5092 3.19158 20.7858C3.45562 21.0623 3.89385 21.0725 4.17039 20.8084L8.93123 16.2629C9.23262 16.3956 9.5755 16.4496 9.93339 16.3985L11.4564 16.1809C11.8518 16.1244 12.2183 15.9412 12.5007 15.6587L15.5002 12.6592L8.7241 11.6028Z" fill="#576B93"/>
</svg>
