<svg width="187" height="30" viewBox="0 0 187 30" fill="none" xmlns="http://www.w3.org/2000/svg">
<rect width="24.9056" height="15.5253" rx="3.46512" transform="matrix(0.695049 -0.718962 0.695049 0.718962 7.79614 18.0176)" fill="#0CAF89"/>
<path fill-rule="evenodd" clip-rule="evenodd" d="M12.6669 1.03193C11.3367 -0.343975 9.18015 -0.343975 7.85001 1.03192L1.87602 7.21145C0.545883 8.58735 0.545884 10.8181 1.87602 12.194L8.58227 19.131C7.92978 17.8075 8.13876 16.1466 9.20922 15.0393L17.7088 6.2473L12.6669 1.03193Z" fill="#0CAF89"/>
<path d="M41.8976 25.3498V19.9734H42.8564C43.1831 19.6988 43.4885 19.3082 43.7726 18.8015C44.0567 18.2949 44.2982 17.6107 44.497 16.749C44.6959 15.8872 44.8332 14.7816 44.9089 13.4322L45.2499 7.28874H54.22V19.9734H55.8678V25.3285H53.7655V21.8342H43.9999V25.3498H41.8976ZM45.4416 19.9734H52.1178V9.17794H47.2385L47.0112 13.4322C46.9497 14.4597 46.8479 15.383 46.7058 16.2021C46.5685 17.0212 46.391 17.7457 46.1732 18.3754C45.9601 19.0004 45.7162 19.5331 45.4416 19.9734Z" fill="#0CAF89"/>
<path d="M70.9068 14.5615C70.9068 16.1145 70.6227 17.4497 70.0545 18.5671C69.4864 19.6798 68.7075 20.5368 67.7179 21.1382C66.733 21.7348 65.6133 22.0331 64.3585 22.0331C63.0991 22.0331 61.9745 21.7348 60.9849 21.1382C60.0001 20.5368 59.2236 19.6775 58.6554 18.56C58.0872 17.4426 57.8031 16.1098 57.8031 14.5615C57.8031 13.0084 58.0872 11.6756 58.6554 10.5629C59.2236 9.44546 60.0001 8.58845 60.9849 7.99186C61.9745 7.39054 63.0991 7.08987 64.3585 7.08987C65.6133 7.08987 66.733 7.39054 67.7179 7.99186C68.7075 8.58845 69.4864 9.44546 70.0545 10.5629C70.6227 11.6756 70.9068 13.0084 70.9068 14.5615ZM68.7335 14.5615C68.7335 13.3778 68.5418 12.3811 68.1582 11.5714C67.7794 10.757 67.2586 10.1415 66.5957 9.72482C65.9376 9.30342 65.1919 9.09272 64.3585 9.09272C63.5205 9.09272 62.7723 9.30342 62.1142 9.72482C61.4561 10.1415 60.9352 10.757 60.5517 11.5714C60.1729 12.3811 59.9835 13.3778 59.9835 14.5615C59.9835 15.7452 60.1729 16.7442 60.5517 17.5586C60.9352 18.3683 61.4561 18.9838 62.1142 19.4052C62.7723 19.8219 63.5205 20.0302 64.3585 20.0302C65.1919 20.0302 65.9376 19.8219 66.5957 19.4052C67.2586 18.9838 67.7794 18.3683 68.1582 17.5586C68.5418 16.7442 68.7335 15.7452 68.7335 14.5615Z" fill="#0CAF89"/>
<path d="M82.2722 21.8342L77.3859 15.3143H75.8376V21.8342H73.643V7.28874H75.8376V13.4322H76.5549L82.0521 7.28874H84.7296L78.9129 13.8015L84.9498 21.8342H82.2722Z" fill="#0CAF89"/>
<path d="M86.2655 9.17794V7.28874H97.5226V9.17794H92.9842V21.8342H90.7967V9.17794H86.2655Z" fill="#0CAF89"/>
<path d="M112.02 14.5615C112.02 16.1145 111.736 17.4497 111.168 18.5671C110.6 19.6798 109.821 20.5368 108.831 21.1382C107.846 21.7348 106.727 22.0331 105.472 22.0331C104.212 22.0331 103.088 21.7348 102.098 21.1382C101.113 20.5368 100.337 19.6775 99.7687 18.56C99.2005 17.4426 98.9164 16.1098 98.9164 14.5615C98.9164 13.0084 99.2005 11.6756 99.7687 10.5629C100.337 9.44546 101.113 8.58845 102.098 7.99186C103.088 7.39054 104.212 7.08987 105.472 7.08987C106.727 7.08987 107.846 7.39054 108.831 7.99186C109.821 8.58845 110.6 9.44546 111.168 10.5629C111.736 11.6756 112.02 13.0084 112.02 14.5615ZM109.847 14.5615C109.847 13.3778 109.655 12.3811 109.272 11.5714C108.893 10.757 108.372 10.1415 107.709 9.72482C107.051 9.30342 106.305 9.09272 105.472 9.09272C104.634 9.09272 103.886 9.30342 103.227 9.72482C102.569 10.1415 102.049 10.757 101.665 11.5714C101.286 12.3811 101.097 13.3778 101.097 14.5615C101.097 15.7452 101.286 16.7442 101.665 17.5586C102.049 18.3683 102.569 18.9838 103.227 19.4052C103.886 19.8219 104.634 20.0302 105.472 20.0302C106.305 20.0302 107.051 19.8219 107.709 19.4052C108.372 18.9838 108.893 18.3683 109.272 17.5586C109.655 16.7442 109.847 15.7452 109.847 14.5615Z" fill="#0CAF89"/>
<path d="M114.756 21.8342V7.28874H119.941C121.073 7.28874 122.01 7.4947 122.753 7.90664C123.497 8.31857 124.053 8.88201 124.422 9.59698C124.792 10.3072 124.976 11.1074 124.976 11.9975C124.976 12.8924 124.789 13.6974 124.415 14.4123C124.046 15.1225 123.487 15.686 122.739 16.1027C121.996 16.5146 121.061 16.7206 119.934 16.7206H116.368V14.8598H119.735C120.45 14.8598 121.03 14.7367 121.475 14.4904C121.92 14.2395 122.247 13.8986 122.455 13.4677C122.663 13.0368 122.768 12.5468 122.768 11.9975C122.768 11.4483 122.663 10.9606 122.455 10.5345C122.247 10.1083 121.918 9.77453 121.468 9.53306C121.023 9.29158 120.436 9.17084 119.707 9.17084H116.951V21.8342H114.756Z" fill="#0CAF89"/>
<path d="M134.071 21.8342H131.741L136.976 7.28874H139.511L144.746 21.8342H142.416L138.304 9.93078H138.19L134.071 21.8342ZM134.462 16.1382H142.018V17.9848H134.462V16.1382Z" fill="#0CAF89"/>
<path d="M158.243 12.0189H156.028C155.942 11.5454 155.784 11.1287 155.552 10.7689C155.32 10.409 155.036 10.1036 154.699 9.85266C154.363 9.60171 153.987 9.41232 153.57 9.28448C153.158 9.15664 152.72 9.09272 152.256 9.09272C151.418 9.09272 150.668 9.30342 150.005 9.72482C149.347 10.1462 148.826 10.7641 148.442 11.5785C148.064 12.3929 147.874 13.3872 147.874 14.5615C147.874 15.7452 148.064 16.7442 148.442 17.5586C148.826 18.373 149.349 18.9885 150.012 19.4052C150.675 19.8219 151.421 20.0302 152.249 20.0302C152.708 20.0302 153.144 19.9687 153.556 19.8456C153.973 19.7177 154.349 19.5307 154.685 19.2845C155.021 19.0383 155.305 18.7376 155.537 18.3825C155.774 18.0226 155.938 17.6107 156.028 17.1467L158.243 17.1538C158.125 17.8688 157.895 18.5269 157.555 19.1282C157.218 19.7248 156.785 20.2409 156.255 20.6765C155.729 21.1074 155.128 21.4412 154.451 21.6779C153.774 21.9147 153.035 22.0331 152.235 22.0331C150.975 22.0331 149.853 21.7348 148.868 21.1382C147.884 20.5368 147.107 19.6775 146.539 18.56C145.975 17.4426 145.694 16.1098 145.694 14.5615C145.694 13.0084 145.978 11.6756 146.546 10.5629C147.114 9.44546 147.891 8.58845 148.876 7.99186C149.86 7.39054 150.98 7.08987 152.235 7.08987C153.007 7.08987 153.726 7.20114 154.394 7.42368C155.066 7.64148 155.67 7.96345 156.205 8.38959C156.74 8.81099 157.183 9.32709 157.533 9.93789C157.884 10.5439 158.12 11.2376 158.243 12.0189Z" fill="#0CAF89"/>
<path d="M169.499 21.8342L164.612 15.3143H163.064V21.8342H160.87V7.28874H163.064V13.4322H163.781L169.279 7.28874H171.956L166.139 13.8015L172.176 21.8342H169.499Z" fill="#0CAF89"/>
<path d="M186.122 14.5615C186.122 16.1145 185.838 17.4497 185.269 18.5671C184.701 19.6798 183.922 20.5368 182.933 21.1382C181.948 21.7348 180.828 22.0331 179.573 22.0331C178.314 22.0331 177.189 21.7348 176.2 21.1382C175.215 20.5368 174.438 19.6775 173.87 18.56C173.302 17.4426 173.018 16.1098 173.018 14.5615C173.018 13.0084 173.302 11.6756 173.87 10.5629C174.438 9.44546 175.215 8.58845 176.2 7.99186C177.189 7.39054 178.314 7.08987 179.573 7.08987C180.828 7.08987 181.948 7.39054 182.933 7.99186C183.922 8.58845 184.701 9.44546 185.269 10.5629C185.838 11.6756 186.122 13.0084 186.122 14.5615ZM183.948 14.5615C183.948 13.3778 183.757 12.3811 183.373 11.5714C182.994 10.757 182.473 10.1415 181.811 9.72482C181.152 9.30342 180.407 9.09272 179.573 9.09272C178.735 9.09272 177.987 9.30342 177.329 9.72482C176.671 10.1415 176.15 10.757 175.767 11.5714C175.388 12.3811 175.198 13.3778 175.198 14.5615C175.198 15.7452 175.388 16.7442 175.767 17.5586C176.15 18.3683 176.671 18.9838 177.329 19.4052C177.987 19.8219 178.735 20.0302 179.573 20.0302C180.407 20.0302 181.152 19.8219 181.811 19.4052C182.473 18.9838 182.994 18.3683 183.373 17.5586C183.757 16.7442 183.948 15.7452 183.948 14.5615Z" fill="#0CAF89"/>
</svg>
