<svg width="24" height="24" viewBox="0 0 24 24" fill="none" xmlns="http://www.w3.org/2000/svg">
<path d="M15.9165 12.5833V6.75H11.8332V17.1133C12.5563 16.7305 13.2034 16.3142 13.7746 15.8646C15.2025 14.7465 15.9165 13.6528 15.9165 12.5833ZM17.6665 5.58333V12.5833C17.6665 13.1059 17.5647 13.6239 17.3612 14.1374C17.1576 14.6508 16.9054 15.1066 16.6047 15.5046C16.3039 15.9026 15.9454 16.2899 15.5291 16.6667C15.1129 17.0434 14.7286 17.3563 14.3761 17.6055C14.0237 17.8546 13.6561 18.0901 13.2733 18.3118C12.8905 18.5336 12.6186 18.684 12.4575 18.763C12.2965 18.842 12.1674 18.9028 12.0702 18.9453C11.9972 18.9818 11.9183 19 11.8332 19C11.7481 19 11.6691 18.9818 11.5962 18.9453C11.499 18.9028 11.3699 18.842 11.2088 18.763C11.0478 18.684 10.7759 18.5336 10.3931 18.3118C10.0103 18.0901 9.64264 17.8546 9.29021 17.6055C8.93778 17.3563 8.55345 17.0434 8.13722 16.6667C7.72098 16.2899 7.36248 15.9026 7.0617 15.5046C6.76092 15.1066 6.50874 14.6508 6.30519 14.1374C6.10163 13.6239 5.99985 13.1059 5.99985 12.5833V5.58333C5.99985 5.42535 6.05757 5.28863 6.17302 5.17318C6.28848 5.05773 6.42519 5 6.58318 5H17.0832C17.2412 5 17.3779 5.05773 17.4933 5.17318C17.6088 5.28863 17.6665 5.42535 17.6665 5.58333Z" fill="#A7AEB9"/>
</svg>
