<svg width="24" height="24" viewBox="0 0 24 24" fill="none" xmlns="http://www.w3.org/2000/svg">
<path d="M12.5678 3.28529C12.9482 2.9049 13.5649 2.9049 13.9453 3.28529L20.7151 10.0551C21.0955 10.4355 21.0955 11.0522 20.7151 11.4326C20.3347 11.813 19.718 11.813 19.3376 11.4326L12.5678 4.66278C12.1874 4.28239 12.1874 3.66567 12.5678 3.28529Z" fill="#CE3636"/>
<path d="M17.0484 3.69269C17.9483 2.79277 19.4074 2.79277 20.3073 3.69269C21.2073 4.59262 21.2073 6.05168 20.3073 6.95161L19.9699 7.28908L16.7109 4.03016L17.0484 3.69269Z" fill="#CE3636"/>
<path d="M12.622 6.48967L17.5104 11.378L15.9972 12.8912L7.03514 12.0765L12.622 6.48967Z" fill="#CE3636"/>
<path d="M5.25265 13.859L14.2147 14.6737L8.90078 19.9876C7.55089 21.3375 5.3623 21.3375 4.01241 19.9876C2.66253 18.6377 2.66253 16.4491 4.01242 15.0992L5.25265 13.859Z" fill="#CE3636"/>
</svg>
