<svg width="24" height="24" viewBox="0 0 24 24" fill="none" xmlns="http://www.w3.org/2000/svg">
<path fill-rule="evenodd" clip-rule="evenodd" d="M13.7006 11.3271C13.7006 11.051 13.4767 10.8271 13.2006 10.8271C12.9244 10.8271 12.7006 11.051 12.7006 11.3271C12.7006 12.8083 13.1058 14.0106 13.7488 14.8903C12.236 15.9636 11.1504 17.8935 11.1504 20.5674C11.1504 20.8436 11.3742 21.0674 11.6504 21.0674C11.9265 21.0674 12.1504 20.8436 12.1504 20.5674C12.1504 18.4234 12.9168 16.8963 13.9887 15.9729C13.9792 16.0906 13.9744 16.2101 13.9744 16.3309C13.9744 18.2445 15.1892 19.7957 16.6876 19.7957C18.1861 19.7957 19.4009 18.2445 19.4009 16.3309C19.4009 16.1601 19.3912 15.9921 19.3725 15.8278C19.5167 15.9465 19.6552 16.0767 19.7869 16.2188C20.6299 17.1276 21.2282 18.5528 21.2282 20.5674C21.2282 20.8436 21.452 21.0674 21.7282 21.0674C22.0043 21.0674 22.2282 20.8436 22.2282 20.5674C22.2282 18.3522 21.5667 16.6671 20.5201 15.5388C20.3517 15.3572 20.1741 15.1909 19.9888 15.0399C20.6587 14.1514 21.0651 12.906 21.0651 11.3271C21.0651 11.051 20.8413 10.8271 20.5651 10.8271C20.289 10.8271 20.0651 11.051 20.0651 11.3271C20.0651 12.7692 19.687 13.804 19.153 14.4864C19.0785 14.4471 19.0032 14.4098 18.9273 14.3746C18.6576 13.872 18.2868 13.4648 17.8523 13.2007V12.49C17.8523 11.8478 17.3317 11.3271 16.6895 11.3271C16.0473 11.3271 15.5267 11.8478 15.5267 12.49V13.1984C15.1272 13.4403 14.7813 13.8031 14.5181 14.2499C14.0253 13.5566 13.7006 12.5877 13.7006 11.3271Z" fill="#F6772D"/>
<path d="M11.1902 12.9528C7.68811 14.2545 4.1227 6.19593 4.06326 5.08286C4.05136 4.86006 13.5416 3.48093 14.0914 9.31701M1 5.68512L4.05941 5.01156L2.86679 2" stroke="#F6772D" stroke-linecap="round"/>
</svg>
