<svg width="24" height="24" viewBox="0 0 24 24" fill="none" xmlns="http://www.w3.org/2000/svg">
<path d="M6.93722 4.76507C6.93722 4.34253 6.59469 4 6.17215 4C5.74962 4 5.40708 4.34253 5.40708 4.76507C5.40708 7.08968 6.04147 8.9749 7.04749 10.3513C4.69116 12.0277 3 15.0484 3 19.2349C3 19.6575 3.34253 20 3.76507 20C4.18761 20 4.53014 19.6575 4.53014 19.2349C4.53014 15.9979 5.63592 13.6576 7.20686 12.1947C7.5201 14.7935 9.26776 16.7827 11.3768 16.7827C13.6072 16.7827 15.4335 14.5579 15.5864 11.7401C15.6071 11.7237 15.6277 11.7071 15.6482 11.6903C15.9211 11.9044 16.1817 12.1446 16.4273 12.4112C17.7418 13.8381 18.674 16.0752 18.674 19.2349C18.674 19.6575 19.0165 20 19.4391 20C19.8616 20 20.2041 19.6575 20.2041 19.2349C20.2041 15.771 19.177 13.1377 17.5527 11.3745C17.286 11.085 17.0044 10.8204 16.7105 10.5806C17.756 9.19209 18.3913 7.24168 18.3913 4.76507C18.3913 4.34253 18.0488 4 17.6262 4C17.2037 4 16.8611 4.34253 16.8611 4.76507C16.8611 7.0318 16.2695 8.65904 15.4336 9.73128L15.3996 9.71331C15.0702 8.37968 14.3508 7.26945 13.4135 6.60413V6.57361C13.4135 5.57478 12.6038 4.76507 11.605 4.76507C10.6939 4.76507 9.94009 5.43884 9.81476 6.31532C8.94816 6.75954 8.22299 7.56241 7.75021 8.5813C7.24728 7.58146 6.93722 6.31346 6.93722 4.76507Z" fill="#F6772D"/>
</svg>
