<svg width="16" height="16" viewBox="0 0 16 16" fill="none" xmlns="http://www.w3.org/2000/svg">
<path d="M14.4873 13.5406L12.014 11.0872C12.974 9.89019 13.439 8.37078 13.3132 6.84145C13.1874 5.31211 12.4804 3.8891 11.3377 2.86501C10.1949 1.84092 8.70318 1.29359 7.16926 1.33556C5.63533 1.37753 4.17579 2.00562 3.09074 3.09067C2.00568 4.17573 1.37759 5.63527 1.33562 7.1692C1.29365 8.70312 1.84098 10.1948 2.86507 11.3376C3.88916 12.4804 5.31218 13.1873 6.84151 13.3131C8.37084 13.4389 9.89025 12.974 11.0873 12.0139L13.5406 14.4672C13.6026 14.5297 13.6764 14.5793 13.7576 14.6132C13.8388 14.647 13.926 14.6644 14.014 14.6644C14.102 14.6644 14.1891 14.647 14.2704 14.6132C14.3516 14.5793 14.4253 14.5297 14.4873 14.4672C14.6075 14.3429 14.6746 14.1768 14.6746 14.0039C14.6746 13.831 14.6075 13.6649 14.4873 13.5406V13.5406ZM7.34731 12.0139C6.42433 12.0139 5.52208 11.7402 4.75465 11.2274C3.98722 10.7147 3.38908 9.98583 3.03587 9.1331C2.68266 8.28038 2.59025 7.34207 2.77031 6.43683C2.95037 5.53158 3.39483 4.70006 4.04748 4.04742C4.70012 3.39477 5.53164 2.95031 6.43689 2.77025C7.34213 2.59018 8.28044 2.6826 9.13316 3.03581C9.98589 3.38902 10.7147 3.98716 11.2275 4.75459C11.7403 5.52202 12.014 6.42427 12.014 7.34725C12.014 8.58492 11.5223 9.77191 10.6471 10.6471C9.77197 11.5222 8.58498 12.0139 7.34731 12.0139V12.0139Z" fill="#525252"/>
</svg>
