<svg width="24" height="24" viewBox="0 0 24 24" fill="none" xmlns="http://www.w3.org/2000/svg">
<path d="M10.9777 3.2556C9.17823 4.76888 4.5 9.12852 4.5 13.5531C4.5 17.0393 7.21569 20.625 11.6715 20.625C16.1273 20.625 18.843 17.0393 18.843 13.5531C18.843 9.12852 14.1647 4.76888 12.3652 3.2556C11.96 2.9148 11.383 2.9148 10.9777 3.2556Z" stroke="#CE3636" stroke-width="1.5"/>
<path fill-rule="evenodd" clip-rule="evenodd" d="M12.3614 17.0092C12.1192 17.0564 11.9611 17.291 12.0083 17.5332C12.0555 17.7754 12.2901 17.9335 12.5323 17.8863C14.6049 17.4826 15.9614 15.8358 16.3574 14.0432C16.4107 13.8023 16.2585 13.5638 16.0176 13.5106C15.7766 13.4574 15.5382 13.6096 15.4849 13.8505C15.1528 15.3542 14.0294 16.6843 12.3614 17.0092Z" fill="#CE3636" stroke="#CE3636" stroke-width="0.5"/>
</svg>
