<svg width="44" height="44" viewBox="0 0 44 44" fill="none" xmlns="http://www.w3.org/2000/svg">
<circle cx="22" cy="22" r="22" fill="#F6F6F9"/>
<path d="M24.5032 24.0915V27.3268M24.5032 27.3268H23.5686C23.0921 27.3268 22.7058 27.7131 22.7058 28.1895V28.9804C22.7058 29.4569 23.0921 29.8431 23.5686 29.8431H23.7842M24.5032 27.3268H25.7973C26.2738 27.3268 26.6601 27.7131 26.6601 28.1895V28.9804C26.6601 29.4569 26.2738 29.8431 25.7973 29.8431H25.5816" stroke="#449AFF" stroke-width="1.5" stroke-linecap="round"/>
<mask id="path-3-inside-1_975_266307" fill="white">
<ellipse cx="18.7515" cy="28.7647" rx="1.43791" ry="1.43791"/>
</mask>
<path d="M18.6894 28.7647C18.6894 28.7304 18.7172 28.7026 18.7515 28.7026V31.7026C20.374 31.7026 21.6894 30.3872 21.6894 28.7647H18.6894ZM18.7515 28.7026C18.7858 28.7026 18.8136 28.7304 18.8136 28.7647H15.8136C15.8136 30.3872 17.1289 31.7026 18.7515 31.7026V28.7026ZM18.8136 28.7647C18.8136 28.799 18.7858 28.8268 18.7515 28.8268V25.8268C17.1289 25.8268 15.8136 27.1421 15.8136 28.7647H18.8136ZM18.7515 28.8268C18.7172 28.8268 18.6894 28.799 18.6894 28.7647H21.6894C21.6894 27.1421 20.374 25.8268 18.7515 25.8268V28.8268Z" fill="#449AFF" mask="url(#path-3-inside-1_975_266307)"/>
<path d="M20.1895 16.5426H23.0654" stroke="#449AFF" stroke-width="1.5" stroke-linecap="round"/>
<path d="M21.6275 15.1047L21.6275 17.9805" stroke="#449AFF" stroke-width="1.5" stroke-linecap="round"/>
<path d="M18.0326 19.4182L25.2221 19.4182" stroke="#449AFF" stroke-width="1.5" stroke-linecap="square"/>
<path d="M17.9167 14.7608C17.9167 13.6503 18.8169 12.75 19.9275 12.75H23.5726C24.6831 12.75 25.5834 13.6503 25.5834 14.7608V20.75C25.5834 22.8671 23.8671 24.5834 21.75 24.5834C19.6329 24.5834 17.9167 22.8671 17.9167 20.75V14.7608Z" stroke="#449AFF" stroke-width="1.5"/>
<path d="M24.5033 24.0915L27.1731 25.7601C29.0903 26.9584 30.2549 29.0597 30.2549 31.3205V31.3205C30.2549 31.6958 29.9507 32 29.5754 32H13.6795C13.3042 32 13 31.6958 13 31.3205V31.3205C13 29.0597 14.1647 26.9584 16.0818 25.7601L18.7516 24.0915" stroke="#449AFF" stroke-width="1.5" stroke-linecap="round"/>
<path d="M18.7516 24.4512V27.327" stroke="#449AFF" stroke-width="1.5" stroke-linecap="round"/>
</svg>
