<svg width="24" height="24" viewBox="0 0 24 24" fill="none" xmlns="http://www.w3.org/2000/svg">
<path d="M15.8004 3H8.60045C7.64567 3 6.72999 3.37928 6.05486 4.05442C5.37973 4.72955 5.00045 5.64522 5.00045 6.6V13.62C4.97906 15.5527 5.72503 17.415 7.07476 18.7985C8.4245 20.1819 10.2678 20.9737 12.2004 21C14.1331 20.9737 15.9764 20.1819 17.3261 18.7985C18.6759 17.415 19.4218 15.5527 19.4005 13.62V6.6C19.4005 5.64522 19.0212 4.72955 18.346 4.05442C17.6709 3.37928 16.7552 3 15.8004 3ZM17.6004 13.62C17.6224 15.0755 17.0662 16.4802 16.0539 17.5263C15.0416 18.5723 13.6559 19.1742 12.2004 19.2C10.745 19.1742 9.35926 18.5723 8.34698 17.5263C7.3347 16.4802 6.77854 15.0755 6.80045 13.62V12.9H17.6004V13.62ZM9.50045 6.6H11.3004V4.8H13.1004V6.6H14.9004V8.4H13.1004V10.2H11.3004V8.4H9.50045V6.6Z" fill="#4156BF"/>
</svg>
