<svg width="33" height="32" viewBox="0 0 33 32" fill="none" xmlns="http://www.w3.org/2000/svg">
<path d="M23.3088 23.5488C22.3154 20.8918 19.7536 19 16.75 19C13.7464 19 11.1846 20.8918 10.1912 23.5488M23.3088 23.5488C25.4172 21.7154 26.75 19.0134 26.75 16C26.75 10.4772 22.2728 6 16.75 6C11.2272 6 6.75 10.4772 6.75 16C6.75 19.0134 8.08285 21.7154 10.1912 23.5488M23.3088 23.5488C21.5531 25.0756 19.2595 26 16.75 26C14.2405 26 11.9469 25.0756 10.1912 23.5488" stroke="#28303F" stroke-width="1.5" stroke-linejoin="round"/>
<circle cx="3" cy="3" r="3" transform="matrix(1 0 0 -1 13.75 16)" stroke="#28303F" stroke-width="1.5" stroke-linejoin="round"/>
</svg>
