<svg width="32" height="32" viewBox="0 0 32 32" fill="none" xmlns="http://www.w3.org/2000/svg">
<path fill-rule="evenodd" clip-rule="evenodd" d="M11.7701 3.95765C11.4771 4.25067 11.3125 4.6481 11.3125 5.0625V6.625C10.8981 6.625 10.5007 6.78962 10.2076 7.08265C9.91462 7.37567 9.75 7.7731 9.75 8.1875V14.4375H5.0625C4.6481 14.4375 4.25067 14.6021 3.95765 14.8951C3.66462 15.1882 3.5 15.5856 3.5 16V26.9375C3.5 27.3519 3.66462 27.7493 3.95765 28.0424C4.25067 28.3354 4.6481 28.5 5.0625 28.5H26.9375C27.3519 28.5 27.7493 28.3354 28.0424 28.0424C28.3354 27.7493 28.5 27.3519 28.5 26.9375V16C28.5 15.5856 28.3354 15.1882 28.0424 14.8951C27.7493 14.6021 27.3519 14.4375 26.9375 14.4375H22.25V8.1875C22.25 7.7731 22.0854 7.37567 21.7924 7.08265C21.4993 6.78962 21.1019 6.625 20.6875 6.625V5.0625C20.6875 4.6481 20.5229 4.25067 20.2299 3.95765C19.9368 3.66462 19.5394 3.5 19.125 3.5H12.875C12.4606 3.5 12.0632 3.66462 11.7701 3.95765ZM17.5625 26.9375H14.4375V22.25H17.5625V26.9375ZM20.6875 26.9375H19.125V22.25C19.125 21.8356 18.9604 21.4382 18.6674 21.1451C18.3743 20.8521 17.9769 20.6875 17.5625 20.6875H14.4375C14.0231 20.6875 13.6257 20.8521 13.3326 21.1451C13.0396 21.4382 12.875 21.8356 12.875 22.25V26.9375H11.3125V8.1875H20.6875V26.9375ZM12.875 5.0625H19.125V6.625H12.875V5.0625ZM22.25 26.9375V16H26.9375V26.9375H22.25ZM9.75 16V26.9375H5.0625V16H9.75ZM16.7812 13.0844V11.3656H15.2188V13.0844L13.7297 12.225L12.9484 13.5781L14.4375 14.4375L12.9484 15.2969L13.7297 16.65L15.2188 15.7906V17.5094H16.7812V15.7906L18.2703 16.65L19.0516 15.2969L17.5625 14.4375L19.0516 13.5797L18.2703 12.225L16.7812 13.0844ZM23.9269 17.6769C24.0002 17.6037 24.0995 17.5625 24.2031 17.5625H24.9844C25.088 17.5625 25.1873 17.6037 25.2606 17.6769C25.3338 17.7502 25.375 17.8495 25.375 17.9531V18.7344C25.375 18.838 25.3338 18.9373 25.2606 19.0106C25.1873 19.0839 25.088 19.125 24.9844 19.125H24.2031C23.9875 19.125 23.8125 18.95 23.8125 18.7344V17.9531C23.8125 17.8495 23.8537 17.7502 23.9269 17.6769ZM23.9269 20.8019C23.8537 20.8752 23.8125 20.9745 23.8125 21.0781V21.8594C23.8125 21.963 23.8537 22.0623 23.9269 22.1356C24.0002 22.2089 24.0995 22.25 24.2031 22.25H24.9844C25.088 22.25 25.1873 22.2089 25.2606 22.1356C25.3338 22.0623 25.375 21.963 25.375 21.8594V21.0781C25.375 20.9745 25.3338 20.8752 25.2606 20.8019C25.1873 20.7287 25.088 20.6875 24.9844 20.6875H24.2031C24.0995 20.6875 24.0002 20.7287 23.9269 20.8019ZM23.9269 23.9269C24.0002 23.8537 24.0995 23.8125 24.2031 23.8125H24.9844C25.088 23.8125 25.1873 23.8537 25.2606 23.9269C25.3338 24.0002 25.375 24.0995 25.375 24.2031V24.9844C25.375 25.088 25.3338 25.1873 25.2606 25.2606C25.1873 25.3339 25.088 25.375 24.9844 25.375H24.2031C23.9875 25.375 23.8125 25.2 23.8125 24.9844V24.2031C23.8125 24.0995 23.8537 24.0002 23.9269 23.9269ZM6.73941 17.6769C6.81267 17.6037 6.91202 17.5625 7.01562 17.5625H7.79688C7.90048 17.5625 7.99983 17.6037 8.07309 17.6769C8.14635 17.7502 8.1875 17.8495 8.1875 17.9531V18.7344C8.1875 18.838 8.14635 18.9373 8.07309 19.0106C7.99983 19.0839 7.90048 19.125 7.79688 19.125H7.01562C6.8 19.125 6.625 18.95 6.625 18.7344V17.9531C6.625 17.8495 6.66616 17.7502 6.73941 17.6769ZM6.73941 20.8019C6.81267 20.7287 6.91202 20.6875 7.01562 20.6875H7.79688C7.90048 20.6875 7.99983 20.7287 8.07309 20.8019C8.14635 20.8752 8.1875 20.9745 8.1875 21.0781V21.8594C8.1875 21.963 8.14635 22.0623 8.07309 22.1356C7.99983 22.2089 7.90048 22.25 7.79688 22.25H7.01562C6.8 22.25 6.625 22.075 6.625 21.8594V21.0781C6.625 20.9745 6.66616 20.8752 6.73941 20.8019ZM6.73941 23.9269C6.66616 24.0002 6.625 24.0995 6.625 24.2031V24.9844C6.625 25.088 6.66616 25.1873 6.73941 25.2606C6.81267 25.3339 6.91202 25.375 7.01562 25.375H7.79688C7.90048 25.375 7.99983 25.3339 8.07309 25.2606C8.14635 25.1873 8.1875 25.088 8.1875 24.9844V24.2031C8.1875 24.0995 8.14635 24.0002 8.07309 23.9269C7.99983 23.8537 7.90048 23.8125 7.79688 23.8125H7.01562C6.91202 23.8125 6.81267 23.8537 6.73941 23.9269Z" fill="#0CAF89"/>
</svg>
