<svg width="311" height="72" viewBox="0 0 311 72" fill="none" xmlns="http://www.w3.org/2000/svg">
<rect width="24" height="24" transform="translate(16 16)" fill="white" fill-opacity="0.01"/>
<path fill-rule="evenodd" clip-rule="evenodd" d="M28 38C22.477 38 18 33.523 18 28C18 22.477 22.477 18 28 18C33.523 18 38 22.477 38 28C38 33.523 33.523 38 28 38ZM29 24C29 24.5523 28.5523 25 28 25C27.4477 25 27 24.5523 27 24C27 23.4477 27.4477 23 28 23C28.5523 23 29 23.4477 29 24ZM28 26C28.5523 26 29 26.4477 29 27V32C29 32.5523 28.5523 33 28 33C27.4477 33 27 32.5523 27 32V27C27 26.4477 27.4477 26 28 26Z" fill="#5772FF"/>
<path d="M49.1449 31V21.5455H52.3395C53.0812 21.5455 53.6875 21.6793 54.1584 21.9471C54.6323 22.2118 54.9832 22.5703 55.2109 23.0227C55.4387 23.4751 55.5526 23.9799 55.5526 24.5369C55.5526 25.094 55.4387 25.6003 55.2109 26.0558C54.9863 26.5112 54.6385 26.8744 54.1676 27.1452C53.6967 27.413 53.0935 27.5469 52.358 27.5469H50.0682V26.5312H52.321C52.8288 26.5312 53.2366 26.4435 53.5444 26.2681C53.8522 26.0927 54.0753 25.8557 54.2138 25.5572C54.3554 25.2556 54.4261 24.9155 54.4261 24.5369C54.4261 24.1584 54.3554 23.8198 54.2138 23.5213C54.0753 23.2228 53.8506 22.9889 53.5398 22.8196C53.2289 22.6473 52.8165 22.5611 52.3026 22.5611H50.2898V31H49.1449ZM59.3358 31.1662C58.8864 31.1662 58.4786 31.0816 58.1124 30.9123C57.7462 30.7399 57.4553 30.4922 57.2399 30.169C57.0244 29.8428 56.9167 29.4489 56.9167 28.9872C56.9167 28.581 56.9967 28.2517 57.1568 27.9993C57.3168 27.7438 57.5307 27.5438 57.7985 27.3991C58.0662 27.2545 58.3617 27.1468 58.6848 27.076C59.0111 27.0021 59.3388 26.9437 59.6681 26.9006C60.099 26.8452 60.4483 26.8036 60.7161 26.7759C60.9869 26.7451 61.1839 26.6944 61.307 26.6236C61.4332 26.5528 61.4963 26.4297 61.4963 26.2543V26.2173C61.4963 25.7618 61.3716 25.4079 61.1223 25.1555C60.8761 24.9032 60.5022 24.777 60.0005 24.777C59.4804 24.777 59.0726 24.8909 58.7772 25.1186C58.4817 25.3464 58.274 25.5895 58.1539 25.848L57.1199 25.4787C57.3045 25.0478 57.5507 24.7124 57.8585 24.4723C58.1693 24.2292 58.5079 24.0599 58.8741 23.9645C59.2434 23.866 59.6066 23.8168 59.9636 23.8168C60.1913 23.8168 60.4529 23.8445 60.7484 23.8999C61.0469 23.9522 61.3347 24.0614 61.6117 24.2276C61.8917 24.3938 62.1241 24.6446 62.3088 24.9801C62.4934 25.3156 62.5858 25.7649 62.5858 26.3281V31H61.4963V30.0398H61.4409C61.367 30.1937 61.2439 30.3583 61.0716 30.5337C60.8992 30.7092 60.6699 30.8584 60.3837 30.9815C60.0975 31.1046 59.7482 31.1662 59.3358 31.1662ZM59.502 30.1875C59.9328 30.1875 60.296 30.1029 60.5914 29.9336C60.89 29.7643 61.1146 29.5458 61.2654 29.2781C61.4193 29.0103 61.4963 28.7287 61.4963 28.4332V27.4361C61.4501 27.4915 61.3485 27.5423 61.1916 27.5884C61.0377 27.6315 60.8592 27.67 60.6561 27.7038C60.456 27.7346 60.2606 27.7623 60.0698 27.7869C59.882 27.8085 59.7297 27.8269 59.6127 27.8423C59.3296 27.8793 59.0649 27.9393 58.8187 28.0224C58.5756 28.1024 58.3786 28.224 58.2278 28.3871C58.0801 28.5471 58.0062 28.7656 58.0062 29.0426C58.0062 29.4212 58.1462 29.7074 58.4263 29.9013C58.7095 30.0921 59.068 30.1875 59.502 30.1875ZM67.455 31.1477C66.7902 31.1477 66.2178 30.9908 65.7377 30.6768C65.2575 30.3629 64.8882 29.9305 64.6297 29.3796C64.3712 28.8287 64.2419 28.1993 64.2419 27.4915C64.2419 26.7713 64.3743 26.1358 64.6389 25.5849C64.9067 25.0309 65.2791 24.5985 65.7561 24.2876C66.2362 23.9737 66.7964 23.8168 67.4365 23.8168C67.9351 23.8168 68.3844 23.9091 68.7845 24.0938C69.1846 24.2784 69.5124 24.5369 69.7678 24.8693C70.0233 25.2017 70.1818 25.5895 70.2433 26.0327H69.1539C69.0708 25.7095 68.8861 25.4233 68.5999 25.174C68.3167 24.9216 67.9351 24.7955 67.455 24.7955C67.0303 24.7955 66.6579 24.9062 66.3378 25.1278C66.0208 25.3464 65.7731 25.6557 65.5945 26.0558C65.4191 26.4528 65.3314 26.919 65.3314 27.4545C65.3314 28.0024 65.4176 28.4794 65.5899 28.8857C65.7654 29.2919 66.0116 29.6074 66.3286 29.832C66.6486 30.0567 67.0241 30.169 67.455 30.169C67.7381 30.169 67.9951 30.1198 68.2259 30.0213C68.4568 29.9228 68.6522 29.7812 68.8122 29.5966C68.9723 29.4119 69.0861 29.1903 69.1539 28.9318H70.2433C70.1818 29.3504 70.0294 29.7274 69.7863 30.0629C69.5463 30.3952 69.2277 30.6599 68.8307 30.8569C68.4368 31.0508 67.9782 31.1477 67.455 31.1477ZM77.3019 23.9091V31H76.2124V23.9091H77.3019ZM76.8772 27.2884V28.304C76.631 28.3963 76.3863 28.4779 76.1432 28.5487C75.9001 28.6164 75.6446 28.6702 75.3769 28.7102C75.1091 28.7472 74.8152 28.7656 74.4951 28.7656C73.6919 28.7656 73.0471 28.5487 72.5608 28.1147C72.0776 27.6808 71.836 27.0298 71.836 26.1619V23.8906H72.9255V26.1619C72.9255 26.5251 72.9948 26.8236 73.1333 27.0575C73.2718 27.2914 73.4595 27.4653 73.6965 27.5792C73.9334 27.6931 74.1997 27.75 74.4951 27.75C74.9568 27.75 75.3738 27.7085 75.7462 27.6254C76.1217 27.5392 76.4987 27.4268 76.8772 27.2884ZM82.2739 31.1477C81.5906 31.1477 81.0013 30.9969 80.5058 30.6953C80.0133 30.3906 79.6333 29.9659 79.3655 29.4212C79.1008 28.8733 78.9685 28.2363 78.9685 27.5099C78.9685 26.7836 79.1008 26.1435 79.3655 25.5895C79.6333 25.0324 80.0057 24.5985 80.4827 24.2876C80.9628 23.9737 81.5229 23.8168 82.1631 23.8168C82.5324 23.8168 82.8971 23.8783 83.2572 24.0014C83.6173 24.1245 83.945 24.3246 84.2405 24.6016C84.536 24.8755 84.7714 25.2386 84.9468 25.6911C85.1222 26.1435 85.21 26.7005 85.21 27.3622V27.8239H79.7441V26.8821H84.102C84.102 26.482 84.022 26.125 83.8619 25.8111C83.705 25.4972 83.4803 25.2494 83.1879 25.0678C82.8986 24.8862 82.557 24.7955 82.1631 24.7955C81.7291 24.7955 81.3537 24.9032 81.0367 25.1186C80.7227 25.331 80.4811 25.608 80.3119 25.9496C80.1426 26.2912 80.058 26.6574 80.058 27.0483V27.6761C80.058 28.2116 80.1503 28.6656 80.335 29.038C80.5227 29.4073 80.7828 29.6889 81.1151 29.8828C81.4475 30.0736 81.8338 30.169 82.2739 30.169C82.5601 30.169 82.8186 30.129 83.0494 30.049C83.2834 29.9659 83.4849 29.8428 83.6542 29.6797C83.8235 29.5135 83.9543 29.3073 84.0466 29.0611L85.0992 29.3565C84.9884 29.7135 84.8022 30.0275 84.5406 30.2983C84.279 30.5661 83.9558 30.7753 83.5711 30.9261C83.1864 31.0739 82.754 31.1477 82.2739 31.1477ZM86.2071 24.9247V23.9091H91.9685V24.9247H89.6418V31H88.5523V24.9247H86.2071ZM98.3034 29.3935L101.72 23.9091H102.975V31H101.886V25.5156L98.4881 31H97.214V23.9091H98.3034V29.3935ZM111.508 31.1477C110.843 31.1477 110.271 30.9908 109.79 30.6768C109.31 30.3629 108.941 29.9305 108.682 29.3796C108.424 28.8287 108.295 28.1993 108.295 27.4915C108.295 26.7713 108.427 26.1358 108.692 25.5849C108.959 25.0309 109.332 24.5985 109.809 24.2876C110.289 23.9737 110.849 23.8168 111.489 23.8168C111.988 23.8168 112.437 23.9091 112.837 24.0938C113.237 24.2784 113.565 24.5369 113.821 24.8693C114.076 25.2017 114.235 25.5895 114.296 26.0327H113.207C113.123 25.7095 112.939 25.4233 112.653 25.174C112.369 24.9216 111.988 24.7955 111.508 24.7955C111.083 24.7955 110.711 24.9062 110.391 25.1278C110.074 25.3464 109.826 25.6557 109.647 26.0558C109.472 26.4528 109.384 26.919 109.384 27.4545C109.384 28.0024 109.47 28.4794 109.643 28.8857C109.818 29.2919 110.064 29.6074 110.381 29.832C110.701 30.0567 111.077 30.169 111.508 30.169C111.791 30.169 112.048 30.1198 112.279 30.0213C112.509 29.9228 112.705 29.7812 112.865 29.5966C113.025 29.4119 113.139 29.1903 113.207 28.9318H114.296C114.235 29.3504 114.082 29.7274 113.839 30.0629C113.599 30.3952 113.28 30.6599 112.883 30.8569C112.489 31.0508 112.031 31.1477 111.508 31.1477ZM115.889 31V23.9091H121.465V31H120.376V24.9247H116.978V31H115.889ZM124.545 29.3935L127.961 23.9091H129.217V31H128.127V25.5156L124.729 31H123.455V23.9091H124.545V29.3935ZM134.093 31.1477C133.428 31.1477 132.855 30.9908 132.375 30.6768C131.895 30.3629 131.526 29.9305 131.267 29.3796C131.009 28.8287 130.88 28.1993 130.88 27.4915C130.88 26.7713 131.012 26.1358 131.277 25.5849C131.544 25.0309 131.917 24.5985 132.394 24.2876C132.874 23.9737 133.434 23.8168 134.074 23.8168C134.573 23.8168 135.022 23.9091 135.422 24.0938C135.822 24.2784 136.15 24.5369 136.406 24.8693C136.661 25.2017 136.819 25.5895 136.881 26.0327H135.792C135.708 25.7095 135.524 25.4233 135.238 25.174C134.954 24.9216 134.573 24.7955 134.093 24.7955C133.668 24.7955 133.296 24.9062 132.975 25.1278C132.658 25.3464 132.411 25.6557 132.232 26.0558C132.057 26.4528 131.969 26.919 131.969 27.4545C131.969 28.0024 132.055 28.4794 132.228 28.8857C132.403 29.2919 132.649 29.6074 132.966 29.832C133.286 30.0567 133.662 30.169 134.093 30.169C134.376 30.169 134.633 30.1198 134.864 30.0213C135.094 29.9228 135.29 29.7812 135.45 29.5966C135.61 29.4119 135.724 29.1903 135.792 28.9318H136.881C136.819 29.3504 136.667 29.7274 136.424 30.0629C136.184 30.3952 135.865 30.6599 135.468 30.8569C135.074 31.0508 134.616 31.1477 134.093 31.1477ZM140.56 31.1662C140.111 31.1662 139.703 31.0816 139.337 30.9123C138.971 30.7399 138.68 30.4922 138.464 30.169C138.249 29.8428 138.141 29.4489 138.141 28.9872C138.141 28.581 138.221 28.2517 138.381 27.9993C138.541 27.7438 138.755 27.5438 139.023 27.3991C139.291 27.2545 139.586 27.1468 139.909 27.076C140.236 27.0021 140.563 26.9437 140.893 26.9006C141.324 26.8452 141.673 26.8036 141.941 26.7759C142.212 26.7451 142.408 26.6944 142.532 26.6236C142.658 26.5528 142.721 26.4297 142.721 26.2543V26.2173C142.721 25.7618 142.596 25.4079 142.347 25.1555C142.101 24.9032 141.727 24.777 141.225 24.777C140.705 24.777 140.297 24.8909 140.002 25.1186C139.706 25.3464 139.499 25.5895 139.379 25.848L138.344 25.4787C138.529 25.0478 138.775 24.7124 139.083 24.4723C139.394 24.2292 139.732 24.0599 140.099 23.9645C140.468 23.866 140.831 23.8168 141.188 23.8168C141.416 23.8168 141.678 23.8445 141.973 23.8999C142.272 23.9522 142.559 24.0614 142.836 24.2276C143.116 24.3938 143.349 24.6446 143.533 24.9801C143.718 25.3156 143.81 25.7649 143.81 26.3281V31H142.721V30.0398H142.665C142.592 30.1937 142.469 30.3583 142.296 30.5337C142.124 30.7092 141.895 30.8584 141.608 30.9815C141.322 31.1046 140.973 31.1662 140.56 31.1662ZM140.727 30.1875C141.157 30.1875 141.521 30.1029 141.816 29.9336C142.115 29.7643 142.339 29.5458 142.49 29.2781C142.644 29.0103 142.721 28.7287 142.721 28.4332V27.4361C142.675 27.4915 142.573 27.5423 142.416 27.5884C142.262 27.6315 142.084 27.67 141.881 27.7038C141.681 27.7346 141.485 27.7623 141.294 27.7869C141.107 27.8085 140.954 27.8269 140.837 27.8423C140.554 27.8793 140.29 27.9393 140.043 28.0224C139.8 28.1024 139.603 28.224 139.452 28.3871C139.305 28.5471 139.231 28.7656 139.231 29.0426C139.231 29.4212 139.371 29.7074 139.651 29.9013C139.934 30.0921 140.293 30.1875 140.727 30.1875ZM150.545 26.956V27.9716H146.63V26.956H150.545ZM146.888 23.9091V31H145.799V23.9091H146.888ZM151.376 23.9091V31H150.286V23.9091H151.376ZM154.455 29.3935L157.871 23.9091H159.127V31H158.037V25.5156L154.639 31H153.365V23.9091H154.455V29.3935ZM164.095 31.1477C163.412 31.1477 162.823 30.9969 162.327 30.6953C161.835 30.3906 161.455 29.9659 161.187 29.4212C160.922 28.8733 160.79 28.2363 160.79 27.5099C160.79 26.7836 160.922 26.1435 161.187 25.5895C161.455 25.0324 161.827 24.5985 162.304 24.2876C162.784 23.9737 163.344 23.8168 163.984 23.8168C164.354 23.8168 164.718 23.8783 165.078 24.0014C165.439 24.1245 165.766 24.3246 166.062 24.6016C166.357 24.8755 166.593 25.2386 166.768 25.6911C166.944 26.1435 167.031 26.7005 167.031 27.3622V27.8239H161.565V26.8821H165.923C165.923 26.482 165.843 26.125 165.683 25.8111C165.526 25.4972 165.302 25.2494 165.009 25.0678C164.72 24.8862 164.378 24.7955 163.984 24.7955C163.55 24.7955 163.175 24.9032 162.858 25.1186C162.544 25.331 162.302 25.608 162.133 25.9496C161.964 26.2912 161.879 26.6574 161.879 27.0483V27.6761C161.879 28.2116 161.972 28.6656 162.156 29.038C162.344 29.4073 162.604 29.6889 162.936 29.8828C163.269 30.0736 163.655 30.169 164.095 30.169C164.381 30.169 164.64 30.129 164.871 30.049C165.105 29.9659 165.306 29.8428 165.475 29.6797C165.645 29.5135 165.776 29.3073 165.868 29.0611L166.92 29.3565C166.81 29.7135 166.623 30.0275 166.362 30.2983C166.1 30.5661 165.777 30.7753 165.392 30.9261C165.008 31.0739 164.575 31.1477 164.095 31.1477ZM173.434 29.3935L176.85 23.9091H178.106V31H177.017V25.5156L173.619 31H172.345V23.9091H173.434V29.3935ZM183.979 29.5227L186.454 23.9091H187.488L184.423 31H183.536L180.526 23.9091H181.542L183.979 29.5227ZM181.191 23.9091V31H180.102V23.9091H181.191ZM186.768 31V23.9091H187.857V31H186.768ZM193.729 29.5227L196.204 23.9091H197.238L194.173 31H193.286L190.276 23.9091H191.292L193.729 29.5227ZM190.941 23.9091V31H189.852V23.9091H190.941ZM196.518 31V23.9091H197.607V31H196.518ZM200.049 33.6591C199.865 33.6591 199.7 33.6437 199.555 33.6129C199.411 33.5852 199.311 33.5575 199.255 33.5298L199.532 32.5696C199.797 32.6373 200.031 32.6619 200.234 32.6435C200.437 32.625 200.617 32.5342 200.774 32.3711C200.934 32.2111 201.08 31.951 201.213 31.5909L201.416 31.0369L198.794 23.9091H199.976L201.933 29.5597H202.007L203.964 23.9091H205.146L202.136 32.0341C202.001 32.4003 201.833 32.7035 201.633 32.9435C201.433 33.1867 201.2 33.3667 200.936 33.4837C200.674 33.6006 200.379 33.6591 200.049 33.6591ZM211.33 26.956V27.9716H207.415V26.956H211.33ZM207.674 23.9091V31H206.584V23.9091H207.674ZM212.161 23.9091V31H211.071V23.9091H212.161ZM217.031 31.1477C216.391 31.1477 215.829 30.9954 215.346 30.6907C214.866 30.386 214.491 29.9598 214.22 29.4119C213.952 28.8641 213.818 28.224 213.818 27.4915C213.818 26.7528 213.952 26.1081 214.22 25.5572C214.491 25.0063 214.866 24.5785 215.346 24.2738C215.829 23.9691 216.391 23.8168 217.031 23.8168C217.671 23.8168 218.231 23.9691 218.712 24.2738C219.195 24.5785 219.57 25.0063 219.838 25.5572C220.109 26.1081 220.244 26.7528 220.244 27.4915C220.244 28.224 220.109 28.8641 219.838 29.4119C219.57 29.9598 219.195 30.386 218.712 30.6907C218.231 30.9954 217.671 31.1477 217.031 31.1477ZM217.031 30.169C217.517 30.169 217.918 30.0444 218.231 29.7951C218.545 29.5458 218.778 29.218 218.929 28.8118C219.079 28.4055 219.155 27.9654 219.155 27.4915C219.155 27.0175 219.079 26.5759 218.929 26.1665C218.778 25.7572 218.545 25.4264 218.231 25.174C217.918 24.9216 217.517 24.7955 217.031 24.7955C216.545 24.7955 216.145 24.9216 215.831 25.174C215.517 25.4264 215.285 25.7572 215.134 26.1665C214.983 26.5759 214.908 27.0175 214.908 27.4915C214.908 27.9654 214.983 28.4055 215.134 28.8118C215.285 29.218 215.517 29.5458 215.831 29.7951C216.145 30.0444 216.545 30.169 217.031 30.169ZM226.284 23.9091V24.9247H222.997V31H221.907V23.9091H226.284ZM226.65 31V29.9844H226.908C227.12 29.9844 227.297 29.9428 227.439 29.8597C227.581 29.7736 227.694 29.6243 227.781 29.4119C227.87 29.1965 227.938 28.898 227.984 28.5163C228.033 28.1316 228.068 27.6423 228.09 27.0483L228.219 23.9091H232.946V31H231.857V24.9247H229.253L229.142 27.4545C229.118 28.0362 229.066 28.5487 228.986 28.9918C228.909 29.4319 228.79 29.8013 228.63 30.0998C228.473 30.3983 228.264 30.623 228.002 30.7738C227.741 30.9246 227.413 31 227.019 31H226.65ZM237.826 31.1477C237.186 31.1477 236.624 30.9954 236.141 30.6907C235.661 30.386 235.285 29.9598 235.015 29.4119C234.747 28.8641 234.613 28.224 234.613 27.4915C234.613 26.7528 234.747 26.1081 235.015 25.5572C235.285 25.0063 235.661 24.5785 236.141 24.2738C236.624 23.9691 237.186 23.8168 237.826 23.8168C238.466 23.8168 239.026 23.9691 239.506 24.2738C239.99 24.5785 240.365 25.0063 240.633 25.5572C240.904 26.1081 241.039 26.7528 241.039 27.4915C241.039 28.224 240.904 28.8641 240.633 29.4119C240.365 29.9598 239.99 30.386 239.506 30.6907C239.026 30.9954 238.466 31.1477 237.826 31.1477ZM237.826 30.169C238.312 30.169 238.712 30.0444 239.026 29.7951C239.34 29.5458 239.573 29.218 239.723 28.8118C239.874 28.4055 239.95 27.9654 239.95 27.4915C239.95 27.0175 239.874 26.5759 239.723 26.1665C239.573 25.7572 239.34 25.4264 239.026 25.174C238.712 24.9216 238.312 24.7955 237.826 24.7955C237.34 24.7955 236.94 24.9216 236.626 25.174C236.312 25.4264 236.08 25.7572 235.929 26.1665C235.778 26.5759 235.703 27.0175 235.703 27.4915C235.703 27.9654 235.778 28.4055 235.929 28.8118C236.08 29.218 236.312 29.5458 236.626 29.7951C236.94 30.0444 237.34 30.169 237.826 30.169ZM247.965 21.25L248.519 21.9148C248.304 22.1241 248.054 22.2702 247.771 22.3533C247.488 22.4364 247.168 22.4872 246.811 22.5057C246.454 22.5241 246.057 22.5426 245.62 22.5611C245.127 22.5795 244.72 22.6996 244.396 22.9212C244.073 23.1428 243.824 23.4628 243.649 23.8814C243.473 24.3 243.361 24.8139 243.312 25.4233H243.404C243.644 24.9801 243.976 24.6539 244.401 24.4446C244.826 24.2353 245.281 24.1307 245.768 24.1307C246.322 24.1307 246.82 24.2599 247.263 24.5185C247.706 24.777 248.057 25.1602 248.316 25.668C248.574 26.1758 248.704 26.8021 248.704 27.5469C248.704 28.2886 248.571 28.9287 248.307 29.4673C248.045 30.0059 247.677 30.4214 247.203 30.7138C246.732 31.0031 246.18 31.1477 245.546 31.1477C244.912 31.1477 244.356 30.9985 243.879 30.6999C243.402 30.3983 243.032 29.9521 242.767 29.3612C242.502 28.7672 242.37 28.0331 242.37 27.1591V26.402C242.37 24.8232 242.638 23.6259 243.173 22.8104C243.712 21.9948 244.521 21.5732 245.601 21.5455C245.983 21.5331 246.323 21.5301 246.622 21.5362C246.92 21.5424 247.18 21.5285 247.402 21.4947C247.623 21.4608 247.811 21.3793 247.965 21.25ZM245.546 30.169C245.974 30.169 246.342 30.0613 246.649 29.8459C246.96 29.6304 247.199 29.3273 247.365 28.9364C247.531 28.5425 247.614 28.0793 247.614 27.5469C247.614 27.0298 247.53 26.5897 247.36 26.2266C247.194 25.8634 246.956 25.5864 246.645 25.3956C246.334 25.2048 245.961 25.1094 245.528 25.1094C245.211 25.1094 244.926 25.1632 244.673 25.271C244.421 25.3787 244.206 25.5372 244.027 25.7464C243.849 25.9557 243.71 26.2112 243.612 26.5128C243.516 26.8144 243.465 27.1591 243.459 27.5469C243.459 28.3409 243.646 28.9764 244.018 29.4535C244.39 29.9305 244.9 30.169 245.546 30.169ZM251.072 33.6591C250.887 33.6591 250.723 33.6437 250.578 33.6129C250.433 33.5852 250.333 33.5575 250.278 33.5298L250.555 32.5696C250.82 32.6373 251.053 32.6619 251.257 32.6435C251.46 32.625 251.64 32.5342 251.797 32.3711C251.957 32.2111 252.103 31.951 252.235 31.5909L252.438 31.0369L249.816 23.9091H250.998L252.955 29.5597H253.029L254.987 23.9091H256.169L253.159 32.0341C253.023 32.4003 252.855 32.7035 252.655 32.9435C252.455 33.1867 252.223 33.3667 251.958 33.4837C251.697 33.6006 251.401 33.6591 251.072 33.6591ZM256.382 31V29.9844H256.641C256.853 29.9844 257.03 29.9428 257.171 29.8597C257.313 29.7736 257.427 29.6243 257.513 29.4119C257.602 29.1965 257.67 28.898 257.716 28.5163C257.765 28.1316 257.801 27.6423 257.822 27.0483L257.952 23.9091H262.679V31H261.589V24.9247H258.986L258.875 27.4545C258.85 28.0362 258.798 28.5487 258.718 28.9918C258.641 29.4319 258.523 29.8013 258.362 30.0998C258.206 30.3983 257.996 30.623 257.735 30.7738C257.473 30.9246 257.145 31 256.751 31H256.382ZM265.767 29.3935L269.184 23.9091H270.439V31H269.35V25.5156L265.952 31H264.678V23.9091H265.767V29.3935ZM277.18 26.956V27.9716H273.266V26.956H277.18ZM273.524 23.9091V31H272.435V23.9091H273.524ZM278.011 23.9091V31H276.922V23.9091H278.011ZM282.088 31.1662C281.638 31.1662 281.231 31.0816 280.864 30.9123C280.498 30.7399 280.207 30.4922 279.992 30.169C279.776 29.8428 279.669 29.4489 279.669 28.9872C279.669 28.581 279.749 28.2517 279.909 27.9993C280.069 27.7438 280.283 27.5438 280.55 27.3991C280.818 27.2545 281.114 27.1468 281.437 27.076C281.763 27.0021 282.091 26.9437 282.42 26.9006C282.851 26.8452 283.2 26.8036 283.468 26.7759C283.739 26.7451 283.936 26.6944 284.059 26.6236C284.185 26.5528 284.248 26.4297 284.248 26.2543V26.2173C284.248 25.7618 284.124 25.4079 283.874 25.1555C283.628 24.9032 283.254 24.777 282.752 24.777C282.232 24.777 281.825 24.8909 281.529 25.1186C281.234 25.3464 281.026 25.5895 280.906 25.848L279.872 25.4787C280.056 25.0478 280.303 24.7124 280.61 24.4723C280.921 24.2292 281.26 24.0599 281.626 23.9645C281.995 23.866 282.359 23.8168 282.716 23.8168C282.943 23.8168 283.205 23.8445 283.5 23.8999C283.799 23.9522 284.087 24.0614 284.364 24.2276C284.644 24.3938 284.876 24.6446 285.061 24.9801C285.245 25.3156 285.338 25.7649 285.338 26.3281V31H284.248V30.0398H284.193C284.119 30.1937 283.996 30.3583 283.824 30.5337C283.651 30.7092 283.422 30.8584 283.136 30.9815C282.849 31.1046 282.5 31.1662 282.088 31.1662ZM282.254 30.1875C282.685 30.1875 283.048 30.1029 283.343 29.9336C283.642 29.7643 283.867 29.5458 284.017 29.2781C284.171 29.0103 284.248 28.7287 284.248 28.4332V27.4361C284.202 27.4915 284.1 27.5423 283.944 27.5884C283.79 27.6315 283.611 27.67 283.408 27.7038C283.208 27.7346 283.013 27.7623 282.822 27.7869C282.634 27.8085 282.482 27.8269 282.365 27.8423C282.082 27.8793 281.817 27.9393 281.571 28.0224C281.328 28.1024 281.131 28.224 280.98 28.3871C280.832 28.5471 280.758 28.7656 280.758 29.0426C280.758 29.4212 280.898 29.7074 281.178 29.9013C281.461 30.0921 281.82 30.1875 282.254 30.1875ZM53.7429 46.956V47.9716H49.8281V46.956H53.7429ZM50.0866 43.9091V51H48.9972V43.9091H50.0866ZM54.5739 43.9091V51H53.4844V43.9091H54.5739ZM58.6502 51.1662C58.2009 51.1662 57.7931 51.0816 57.4268 50.9123C57.0606 50.7399 56.7698 50.4922 56.5543 50.169C56.3389 49.8428 56.2312 49.4489 56.2312 48.9872C56.2312 48.581 56.3112 48.2517 56.4712 47.9993C56.6313 47.7438 56.8452 47.5438 57.1129 47.3991C57.3807 47.2545 57.6761 47.1468 57.9993 47.076C58.3255 47.0021 58.6533 46.9437 58.9826 46.9006C59.4135 46.8452 59.7628 46.8036 60.0305 46.7759C60.3014 46.7451 60.4983 46.6944 60.6214 46.6236C60.7476 46.5528 60.8107 46.4297 60.8107 46.2543V46.2173C60.8107 45.7618 60.6861 45.4079 60.4368 45.1555C60.1906 44.9032 59.8166 44.777 59.315 44.777C58.7949 44.777 58.3871 44.8909 58.0916 45.1186C57.7962 45.3464 57.5884 45.5895 57.4684 45.848L56.4343 45.4787C56.619 45.0478 56.8652 44.7124 57.1729 44.4723C57.4838 44.2292 57.8223 44.0599 58.1886 43.9645C58.5579 43.866 58.921 43.8168 59.2781 43.8168C59.5058 43.8168 59.7674 43.8445 60.0629 43.8999C60.3614 43.9522 60.6491 44.0614 60.9261 44.2276C61.2062 44.3938 61.4386 44.6446 61.6232 44.9801C61.8079 45.3156 61.9002 45.7649 61.9002 46.3281V51H60.8107V50.0398H60.7553C60.6815 50.1937 60.5584 50.3583 60.386 50.5337C60.2137 50.7092 59.9844 50.8584 59.6982 50.9815C59.4119 51.1046 59.0626 51.1662 58.6502 51.1662ZM58.8164 50.1875C59.2473 50.1875 59.6104 50.1029 59.9059 49.9336C60.2044 49.7643 60.4291 49.5458 60.5799 49.2781C60.7338 49.0103 60.8107 48.7287 60.8107 48.4332V47.4361C60.7646 47.4915 60.663 47.5423 60.506 47.5884C60.3522 47.6315 60.1737 47.67 59.9705 47.7038C59.7705 47.7346 59.575 47.7623 59.3842 47.7869C59.1965 47.8085 59.0442 47.8269 58.9272 47.8423C58.6441 47.8793 58.3794 47.9393 58.1332 48.0224C57.89 48.1024 57.6931 48.224 57.5423 48.3871C57.3945 48.5471 57.3207 48.7656 57.3207 49.0426C57.3207 49.4212 57.4607 49.7074 57.7408 49.9013C58.0239 50.0921 58.3825 50.1875 58.8164 50.1875ZM70.4257 51.1477C69.7609 51.1477 69.1885 50.9908 68.7084 50.6768C68.2282 50.3629 67.8589 49.9305 67.6004 49.3796C67.3419 48.8287 67.2126 48.1993 67.2126 47.4915C67.2126 46.7713 67.345 46.1358 67.6096 45.5849C67.8774 45.0309 68.2498 44.5985 68.7268 44.2876C69.2069 43.9737 69.7671 43.8168 70.4072 43.8168C70.9058 43.8168 71.3551 43.9091 71.7552 44.0938C72.1553 44.2784 72.4831 44.5369 72.7385 44.8693C72.994 45.2017 73.1525 45.5895 73.214 46.0327H72.1246C72.0415 45.7095 71.8568 45.4233 71.5706 45.174C71.2874 44.9216 70.9058 44.7955 70.4257 44.7955C70.001 44.7955 69.6286 44.9062 69.3085 45.1278C68.9915 45.3464 68.7438 45.6557 68.5653 46.0558C68.3898 46.4528 68.3021 46.919 68.3021 47.4545C68.3021 48.0024 68.3883 48.4794 68.5606 48.8857C68.7361 49.2919 68.9823 49.6074 69.2993 49.832C69.6193 50.0567 69.9948 50.169 70.4257 50.169C70.7088 50.169 70.9658 50.1198 71.1966 50.0213C71.4275 49.9228 71.6229 49.7812 71.7829 49.5966C71.943 49.4119 72.0568 49.1903 72.1246 48.9318H73.214C73.1525 49.3504 73.0001 49.7274 72.757 50.0629C72.517 50.3952 72.1984 50.6599 71.8014 50.8569C71.4075 51.0508 70.9489 51.1477 70.4257 51.1477ZM74.1789 51V49.9844H74.4374C74.6498 49.9844 74.8267 49.9428 74.9683 49.8597C75.1099 49.7736 75.2238 49.6243 75.3099 49.4119C75.3992 49.1965 75.4669 48.898 75.5131 48.5163C75.5623 48.1316 75.5977 47.6423 75.6192 47.0483L75.7485 43.9091H80.4758V51H79.3863V44.9247H76.7826L76.6718 47.4545C76.6472 48.0362 76.5948 48.5487 76.5148 48.9918C76.4379 49.4319 76.3194 49.8013 76.1594 50.0998C76.0024 50.3983 75.7931 50.623 75.5315 50.7738C75.2699 50.9246 74.9421 51 74.5482 51H74.1789ZM85.4477 51.1477C84.7645 51.1477 84.1751 50.9969 83.6796 50.6953C83.1872 50.3906 82.8071 49.9659 82.5393 49.4212C82.2747 48.8733 82.1423 48.2363 82.1423 47.5099C82.1423 46.7836 82.2747 46.1435 82.5393 45.5895C82.8071 45.0324 83.1795 44.5985 83.6565 44.2876C84.1366 43.9737 84.6968 43.8168 85.3369 43.8168C85.7062 43.8168 86.0709 43.8783 86.431 44.0014C86.7911 44.1245 87.1189 44.3246 87.4143 44.6016C87.7098 44.8755 87.9452 45.2386 88.1207 45.6911C88.2961 46.1435 88.3838 46.7005 88.3838 47.3622V47.8239H82.9179V46.8821H87.2758C87.2758 46.482 87.1958 46.125 87.0358 45.8111C86.8788 45.4972 86.6541 45.2494 86.3618 45.0678C86.0725 44.8862 85.7309 44.7955 85.3369 44.7955C84.903 44.7955 84.5275 44.9032 84.2105 45.1186C83.8966 45.331 83.655 45.608 83.4857 45.9496C83.3164 46.2912 83.2318 46.6574 83.2318 47.0483V47.6761C83.2318 48.2116 83.3241 48.6656 83.5088 49.038C83.6965 49.4073 83.9566 49.6889 84.289 49.8828C84.6214 50.0736 85.0076 50.169 85.4477 50.169C85.7339 50.169 85.9925 50.129 86.2233 50.049C86.4572 49.9659 86.6588 49.8428 86.828 49.6797C86.9973 49.5135 87.1281 49.3073 87.2204 49.0611L88.273 49.3565C88.1622 49.7135 87.976 50.0275 87.7144 50.2983C87.4528 50.5661 87.1296 50.7753 86.7449 50.9261C86.3602 51.0739 85.9278 51.1477 85.4477 51.1477ZM89.284 53.0312V49.9844H89.8749C90.0196 49.8336 90.1442 49.6705 90.2488 49.495C90.3535 49.3196 90.4443 49.1119 90.5212 48.8718C90.6012 48.6287 90.6689 48.3332 90.7243 47.9854C90.7797 47.6346 90.829 47.2114 90.8721 46.7159L91.1121 43.9091H95.6178V49.9844H96.7073V53.0312H95.6178V51H90.3735V53.0312H89.284ZM91.1121 49.9844H94.5283V44.9247H92.1278L91.9431 46.7159C91.8662 47.4576 91.7707 48.1055 91.6569 48.6594C91.543 49.2134 91.3614 49.6551 91.1121 49.9844ZM98.8551 53.6591C98.6705 53.6591 98.5058 53.6437 98.3612 53.6129C98.2165 53.5852 98.1165 53.5575 98.0611 53.5298L98.3381 52.5696C98.6027 52.6373 98.8366 52.6619 99.0398 52.6435C99.2429 52.625 99.4229 52.5342 99.5799 52.3711C99.7399 52.2111 99.8861 51.951 100.018 51.5909L100.222 51.0369L97.5994 43.9091H98.7812L100.739 49.5597H100.812L102.77 43.9091H103.952L100.942 52.0341C100.806 52.4003 100.639 52.7035 100.439 52.9435C100.239 53.1867 100.006 53.3667 99.7415 53.4837C99.4799 53.6006 99.1844 53.6591 98.8551 53.6591ZM108.787 47.0114V48.027H105.039V47.0114H108.787ZM105.962 43.9091V51H104.873V43.9091H105.962ZM110.966 51.1477C110.326 51.1477 109.765 50.9954 109.281 50.6907C108.801 50.386 108.426 49.9598 108.155 49.4119C107.887 48.8641 107.753 48.224 107.753 47.4915C107.753 46.7528 107.887 46.1081 108.155 45.5572C108.426 45.0063 108.801 44.5785 109.281 44.2738C109.765 43.9691 110.326 43.8168 110.966 43.8168C111.607 43.8168 112.167 43.9691 112.647 44.2738C113.13 44.5785 113.506 45.0063 113.773 45.5572C114.044 46.1081 114.18 46.7528 114.18 47.4915C114.18 48.224 114.044 48.8641 113.773 49.4119C113.506 49.9598 113.13 50.386 112.647 50.6907C112.167 50.9954 111.607 51.1477 110.966 51.1477ZM110.966 50.169C111.453 50.169 111.853 50.0444 112.167 49.7951C112.481 49.5458 112.713 49.218 112.864 48.8118C113.015 48.4055 113.09 47.9654 113.09 47.4915C113.09 47.0175 113.015 46.5759 112.864 46.1665C112.713 45.7572 112.481 45.4264 112.167 45.174C111.853 44.9216 111.453 44.7955 110.966 44.7955C110.48 44.7955 110.08 44.9216 109.766 45.174C109.452 45.4264 109.22 45.7572 109.069 46.1665C108.918 46.5759 108.843 47.0175 108.843 47.4915C108.843 47.9654 108.918 48.4055 109.069 48.8118C109.22 49.218 109.452 49.5458 109.766 49.7951C110.08 50.0444 110.48 50.169 110.966 50.169ZM125.628 49.9844L125.499 53.0312H124.373V51H123.449V49.9844H125.628ZM115.952 43.9091H117.042V49.9844H119.719V43.9091H120.809V49.9844H123.486V43.9091H124.576V51H115.952V43.9091ZM130.11 51.1477C129.427 51.1477 128.837 50.9969 128.342 50.6953C127.849 50.3906 127.469 49.9659 127.201 49.4212C126.937 48.8733 126.804 48.2363 126.804 47.5099C126.804 46.7836 126.937 46.1435 127.201 45.5895C127.469 45.0324 127.842 44.5985 128.319 44.2876C128.799 43.9737 129.359 43.8168 129.999 43.8168C130.368 43.8168 130.733 43.8783 131.093 44.0014C131.453 44.1245 131.781 44.3246 132.076 44.6016C132.372 44.8755 132.607 45.2386 132.783 45.6911C132.958 46.1435 133.046 46.7005 133.046 47.3622V47.8239H127.58V46.8821H131.938C131.938 46.482 131.858 46.125 131.698 45.8111C131.541 45.4972 131.316 45.2494 131.024 45.0678C130.735 44.8862 130.393 44.7955 129.999 44.7955C129.565 44.7955 129.19 44.9032 128.873 45.1186C128.559 45.331 128.317 45.608 128.148 45.9496C127.979 46.2912 127.894 46.6574 127.894 47.0483V47.6761C127.894 48.2116 127.986 48.6656 128.171 49.038C128.359 49.4073 128.619 49.6889 128.951 49.8828C129.283 50.0736 129.67 50.169 130.11 50.169C130.396 50.169 130.655 50.129 130.885 50.049C131.119 49.9659 131.321 49.8428 131.49 49.6797C131.659 49.5135 131.79 49.3073 131.883 49.0611L132.935 49.3565C132.824 49.7135 132.638 50.0275 132.377 50.2983C132.115 50.5661 131.792 50.7753 131.407 50.9261C131.022 51.0739 130.59 51.1477 130.11 51.1477ZM138.581 49.5227L141.055 43.9091H142.09L139.024 51H138.138L135.128 43.9091H136.144L138.581 49.5227ZM135.793 43.9091V51H134.703V43.9091H135.793ZM141.369 51V43.9091H142.459V51H141.369ZM148.109 43.9091H149.199V49.9844H151.877V43.9091H152.966V49.9844H155.644V43.9091H156.733V51H148.109V43.9091ZM160.809 51.1662C160.36 51.1662 159.952 51.0816 159.586 50.9123C159.22 50.7399 158.929 50.4922 158.714 50.169C158.498 49.8428 158.39 49.4489 158.39 48.9872C158.39 48.581 158.47 48.2517 158.63 47.9993C158.79 47.7438 159.004 47.5438 159.272 47.3991C159.54 47.2545 159.835 47.1468 160.158 47.076C160.485 47.0021 160.812 46.9437 161.142 46.9006C161.573 46.8452 161.922 46.8036 162.19 46.7759C162.461 46.7451 162.658 46.6944 162.781 46.6236C162.907 46.5528 162.97 46.4297 162.97 46.2543V46.2173C162.97 45.7618 162.845 45.4079 162.596 45.1555C162.35 44.9032 161.976 44.777 161.474 44.777C160.954 44.777 160.546 44.8909 160.251 45.1186C159.955 45.3464 159.748 45.5895 159.628 45.848L158.593 45.4787C158.778 45.0478 159.024 44.7124 159.332 44.4723C159.643 44.2292 159.982 44.0599 160.348 43.9645C160.717 43.866 161.08 43.8168 161.437 43.8168C161.665 43.8168 161.927 43.8445 162.222 43.8999C162.521 43.9522 162.808 44.0614 163.085 44.2276C163.365 44.3938 163.598 44.6446 163.782 44.9801C163.967 45.3156 164.059 45.7649 164.059 46.3281V51H162.97V50.0398H162.915C162.841 50.1937 162.718 50.3583 162.545 50.5337C162.373 50.7092 162.144 50.8584 161.857 50.9815C161.571 51.1046 161.222 51.1662 160.809 51.1662ZM160.976 50.1875C161.406 50.1875 161.77 50.1029 162.065 49.9336C162.364 49.7643 162.588 49.5458 162.739 49.2781C162.893 49.0103 162.97 48.7287 162.97 48.4332V47.4361C162.924 47.4915 162.822 47.5423 162.665 47.5884C162.511 47.6315 162.333 47.67 162.13 47.7038C161.93 47.7346 161.734 47.7623 161.543 47.7869C161.356 47.8085 161.203 47.8269 161.086 47.8423C160.803 47.8793 160.539 47.9393 160.292 48.0224C160.049 48.1024 159.852 48.224 159.701 48.3871C159.554 48.5471 159.48 48.7656 159.48 49.0426C159.48 49.4212 159.62 49.7074 159.9 49.9013C160.183 50.0921 160.542 50.1875 160.976 50.1875ZM170.424 43.9091V44.9247H167.137V51H166.048V43.9091H170.424ZM174.62 51.1477C173.936 51.1477 173.347 50.9969 172.851 50.6953C172.359 50.3906 171.979 49.9659 171.711 49.4212C171.447 48.8733 171.314 48.2363 171.314 47.5099C171.314 46.7836 171.447 46.1435 171.711 45.5895C171.979 45.0324 172.351 44.5985 172.828 44.2876C173.309 43.9737 173.869 43.8168 174.509 43.8168C174.878 43.8168 175.243 43.8783 175.603 44.0014C175.963 44.1245 176.291 44.3246 176.586 44.6016C176.882 44.8755 177.117 45.2386 177.293 45.6911C177.468 46.1435 177.556 46.7005 177.556 47.3622V47.8239H172.09V46.8821H176.448C176.448 46.482 176.368 46.125 176.208 45.8111C176.051 45.4972 175.826 45.2494 175.534 45.0678C175.244 44.8862 174.903 44.7955 174.509 44.7955C174.075 44.7955 173.699 44.9032 173.382 45.1186C173.068 45.331 172.827 45.608 172.658 45.9496C172.488 46.2912 172.404 46.6574 172.404 47.0483V47.6761C172.404 48.2116 172.496 48.6656 172.681 49.038C172.868 49.4073 173.128 49.6889 173.461 49.8828C173.793 50.0736 174.179 50.169 174.62 50.169C174.906 50.169 175.164 50.129 175.395 50.049C175.629 49.9659 175.831 49.8428 176 49.6797C176.169 49.5135 176.3 49.3073 176.392 49.0611L177.445 49.3565C177.334 49.7135 177.148 50.0275 176.886 50.2983C176.625 50.5661 176.302 50.7753 175.917 50.9261C175.532 51.0739 175.1 51.1477 174.62 51.1477Z" fill="#172B4D"/>
<rect x="0.5" y="0.5" width="310" height="71" rx="11.5" stroke="#BAC3F1"/>
</svg>
