<svg width="33" height="32" viewBox="0 0 33 32" fill="none" xmlns="http://www.w3.org/2000/svg">
<path d="M10.1954 24.2496C8.31384 22.3033 8.31384 19.1477 10.1954 17.2013L20.4324 6.61218C22.314 4.66585 25.3647 4.66585 27.2462 6.61218L31.0613 10.5584C32.9429 12.5048 32.9429 15.6604 31.0613 17.6067L20.8243 28.1959C18.9427 30.1422 15.892 30.1422 14.0105 28.1959L10.1954 24.2496Z" fill="#0CAF89"/>
<path fill-rule="evenodd" clip-rule="evenodd" d="M11.6257 4.03186C10.2956 2.65597 8.13903 2.65596 6.80889 4.03186L0.99687 10.0438C-0.333267 11.4197 -0.333266 13.6505 0.996871 15.0264L7.59359 21.8501C6.93883 20.526 7.14719 18.8629 8.21867 17.7546L16.5554 9.13109L11.6257 4.03186Z" fill="#0CAF89"/>
</svg>
