<svg width="24" height="24" viewBox="0 0 24 24" fill="none" xmlns="http://www.w3.org/2000/svg">
<path d="M7 11.94C7 12.245 7.11663 12.5052 7.35887 12.7385L14.3568 19.5839C14.5452 19.7813 14.7965 19.88 15.0836 19.88C15.6667 19.88 16.1243 19.4314 16.1243 18.8393C16.1243 18.5522 16.0076 18.292 15.8103 18.0946L9.50312 11.94L15.8103 5.78538C16.0076 5.57903 16.1243 5.31885 16.1243 5.03175C16.1243 4.44859 15.6667 4 15.0836 4C14.7965 4 14.5452 4.09869 14.3568 4.29607L7.35887 11.1415C7.11663 11.3748 7.00897 11.635 7 11.94Z" fill="#007AFF"/>
</svg>
