<svg width="33" height="32" viewBox="0 0 33 32" fill="none" xmlns="http://www.w3.org/2000/svg">
<path d="M24.8438 17H25.5938V16.25H24.8438V17ZM16.8438 20V19.25C16.4295 19.25 16.0938 19.5858 16.0938 20H16.8438ZM20.8438 20H21.5938C21.5938 19.5858 21.258 19.25 20.8438 19.25V20ZM20.8438 26L20.3134 26.5303C20.5279 26.7448 20.8505 26.809 21.1308 26.6929C21.411 26.5768 21.5938 26.3033 21.5938 26H20.8438ZM16.8438 26H16.0938C16.0938 26.3033 16.2765 26.5768 16.5567 26.6929C16.837 26.809 17.1596 26.7448 17.3741 26.5303L16.8438 26ZM18.8438 24L19.3741 23.4697C19.0812 23.1768 18.6063 23.1768 18.3134 23.4697L18.8438 24ZM12.8438 9.25C12.4295 9.25 12.0938 9.58579 12.0938 10C12.0938 10.4142 12.4295 10.75 12.8438 10.75V9.25ZM20.8438 10.75C21.258 10.75 21.5938 10.4142 21.5938 10C21.5938 9.58579 21.258 9.25 20.8438 9.25V10.75ZM12.8438 12.75C12.4295 12.75 12.0938 13.0858 12.0938 13.5C12.0938 13.9142 12.4295 14.25 12.8438 14.25V12.75ZM16.8438 14.25C17.258 14.25 17.5938 13.9142 17.5938 13.5C17.5938 13.0858 17.258 12.75 16.8438 12.75V14.25ZM11.8438 6.75H21.8438V5.25H11.8438V6.75ZM24.0938 9V20H25.5938V9H24.0938ZM9.59375 20V9H8.09375V20H9.59375ZM21.8438 22.25H21.4152V23.75H21.8438V22.25ZM16.8438 22.25H11.8438V23.75H16.8438V22.25ZM8.09375 20C8.09375 22.0711 9.77268 23.75 11.8438 23.75V22.25C10.6011 22.25 9.59375 21.2426 9.59375 20H8.09375ZM24.0938 20C24.0938 21.2426 23.0864 22.25 21.8438 22.25V23.75C23.9148 23.75 25.5938 22.0711 25.5938 20H24.0938ZM21.8438 6.75C23.0864 6.75 24.0938 7.75736 24.0938 9H25.5938C25.5938 6.92893 23.9148 5.25 21.8438 5.25V6.75ZM11.8438 5.25C9.77268 5.25 8.09375 6.92893 8.09375 9H9.59375C9.59375 7.75736 10.6011 6.75 11.8438 6.75V5.25ZM11.8438 17.75H24.8438V16.25H11.8438V17.75ZM24.0938 17V20H25.5938V17H24.0938ZM11.8438 16.25C9.77268 16.25 8.09375 17.9289 8.09375 20H9.59375C9.59375 18.7574 10.6011 17.75 11.8438 17.75V16.25ZM16.8438 20.75H20.8438V19.25H16.8438V20.75ZM20.0938 20V26H21.5938V20H20.0938ZM17.5938 26V20H16.0938V26H17.5938ZM21.3741 25.4697L19.3741 23.4697L18.3134 24.5303L20.3134 26.5303L21.3741 25.4697ZM18.3134 23.4697L16.3134 25.4697L17.3741 26.5303L19.3741 24.5303L18.3134 23.4697ZM12.8438 10.75H20.8438V9.25H12.8438V10.75ZM12.8438 14.25H16.8438V12.75H12.8438V14.25Z" fill="#28303F"/>
</svg>
