<svg width="33" height="32" viewBox="0 0 33 32" fill="none" xmlns="http://www.w3.org/2000/svg">
<g clip-path="url(#clip0_814_257602)">
<path fill-rule="evenodd" clip-rule="evenodd" d="M9.9467 9.1967C11.3532 7.79018 13.2609 7 15.25 7C17.2391 7 19.1468 7.79018 20.5533 9.1967C21.9598 10.6032 22.75 12.5109 22.75 14.5C22.75 16.1528 22.2045 17.7493 21.2131 19.0489L25.4571 23.2929C25.8476 23.6834 25.8476 24.3166 25.4571 24.7071C25.0666 25.0976 24.4334 25.0976 24.0429 24.7071L19.7989 20.4631C18.4993 21.4545 16.9028 22 15.25 22C13.2609 22 11.3532 21.2098 9.9467 19.8033C8.54018 18.3968 7.75 16.4891 7.75 14.5C7.75 12.5109 8.54018 10.6032 9.9467 9.1967ZM15.25 9C13.7913 9 12.3924 9.57946 11.3609 10.6109C10.3295 11.6424 9.75 13.0413 9.75 14.5C9.75 15.9587 10.3295 17.3576 11.3609 18.3891C12.3924 19.4205 13.7913 20 15.25 20C16.7087 20 18.1076 19.4205 19.1391 18.3891C20.1705 17.3576 20.75 15.9587 20.75 14.5C20.75 13.0413 20.1705 11.6424 19.1391 10.6109C18.1076 9.57946 16.7087 9 15.25 9Z" fill="#28303F"/>
</g>
<defs>
<clipPath id="clip0_814_257602">
<rect x="0.75" width="32" height="32" rx="16" fill="white"/>
</clipPath>
</defs>
</svg>
