<svg width="16" height="17" viewBox="0 0 16 17" fill="none" xmlns="http://www.w3.org/2000/svg">
<path d="M5.33435 13.0559C4.39348 13.1612 3.29818 13.7765 2.49186 14.3183C2.01962 14.6357 1.33435 14.3058 1.33435 13.7368V7.29051C1.33435 6.90039 1.5046 6.52924 1.81578 6.29395C2.48904 5.78489 3.75834 4.91462 4.90566 4.62793M5.33435 13.0559C7.54656 12.8083 8.45548 15.4302 10.6677 15.1826M5.33435 13.0559V6.75193M10.6677 15.1826C11.9125 15.0433 13.4277 14.0112 14.1862 13.4377C14.4974 13.2024 14.6677 12.8312 14.6677 12.4411V5.99483C14.6677 5.42586 13.9824 5.09592 13.5102 5.41327C12.8469 5.85899 11.9881 6.3544 11.1806 6.57477M10.6677 15.1826V7.97388" stroke="#A3A3A3" stroke-width="1.25"/>
<path d="M11.6416 5.07598C11.6416 6.84329 9.97498 9.87598 8.30831 9.87598C6.64164 9.87598 4.97498 6.84329 4.97498 5.07598C4.97498 3.30867 6.46736 1.87598 8.30831 1.87598C10.1493 1.87598 11.6416 3.30867 11.6416 5.07598Z" stroke="#A3A3A3" stroke-width="1.25"/>
<path d="M9.30831 4.87598C9.30831 5.42826 8.86059 5.87598 8.30831 5.87598C7.75602 5.87598 7.30831 5.42826 7.30831 4.87598C7.30831 4.32369 7.75602 3.87598 8.30831 3.87598C8.86059 3.87598 9.30831 4.32369 9.30831 4.87598Z" stroke="#A3A3A3" stroke-width="1.25"/>
</svg>
