<svg width="311" height="167" viewBox="0 0 311 167" fill="none" xmlns="http://www.w3.org/2000/svg">
<g clip-path="url(#clip0_802_265107)">
<path d="M136.438 53.0998C136.438 51.619 137.638 50.4186 139.119 50.4186H154.742L155.966 48.2038C156.547 47.1526 157.653 46.5 158.854 46.5H171.911C173.392 46.5 174.593 47.7004 174.593 49.1812V62.3808C174.593 63.8616 173.392 65.062 171.911 65.062H139.119C137.638 65.062 136.438 63.8616 136.438 62.3808V53.0998Z" fill="#D2F3E4"/>
<path d="M136.438 52.9967C136.438 52.6549 136.715 52.3779 137.056 52.3779H174.593V53.8216H136.438V52.9967Z" fill="black" fill-opacity="0.05"/>
<path d="M133.541 57.6436C133.221 55.5808 134.816 53.7188 136.904 53.7188H174.096C176.177 53.7188 177.77 55.5691 177.462 57.6266L173.997 80.7259C173.747 82.3918 172.316 83.6241 170.631 83.6241H140.488C138.81 83.6241 137.383 82.401 137.125 80.7429L133.541 57.6436Z" fill="#D2F3E4"/>
<path d="M133.541 57.6436C133.221 55.5808 134.816 53.7188 136.904 53.7188H174.096C176.177 53.7188 177.77 55.5691 177.462 57.6266L173.997 80.7259C173.747 82.3918 172.316 83.6241 170.631 83.6241H140.488C138.81 83.6241 137.383 82.401 137.125 80.7429L133.541 57.6436Z" fill="white" fill-opacity="0.5"/>
<path d="M134.098 60.8316C133.784 58.7716 135.378 56.9155 137.462 56.9155H173.544C175.62 56.9155 177.212 58.7584 176.911 60.8125L173.991 80.7151C173.746 82.3858 172.312 83.6241 170.624 83.6241H140.498C138.816 83.6241 137.387 82.3963 137.134 80.7342L134.098 60.8316Z" fill="#D2F3E4"/>
<path d="M134.098 60.8316C133.784 58.7716 135.378 56.9155 137.462 56.9155H173.544C175.62 56.9155 177.212 58.7584 176.911 60.8125L173.991 80.7151C173.746 82.3858 172.312 83.6241 170.624 83.6241H140.498C138.816 83.6241 137.387 82.3963 137.134 80.7342L134.098 60.8316Z" fill="white" fill-opacity="0.2"/>
<path d="M140.148 73.3115C140.148 72.4572 140.841 71.7646 141.695 71.7646H147.676C148.531 71.7646 149.223 72.4572 149.223 73.3115V75.3739C149.223 76.2282 148.531 76.9207 147.676 76.9207H141.695C140.841 76.9207 140.148 76.2282 140.148 75.3739V73.3115Z" fill="#0CAF89"/>
<path fill-rule="evenodd" clip-rule="evenodd" d="M156.392 62.1234C158.076 60.4393 160.36 59.4932 162.742 59.4932C165.124 59.4932 167.408 60.4393 169.092 62.1234C170.776 63.8075 171.722 66.0917 171.722 68.4734C171.722 70.4523 171.069 72.364 169.882 73.92L176.698 80.3836C177.166 80.8511 177.166 81.6093 176.698 82.0769C176.231 82.5445 175.472 82.5445 175.005 82.0769L168.189 75.6133C166.633 76.8004 164.721 77.4536 162.742 77.4536C160.36 77.4536 158.076 76.5074 156.392 74.8233C154.708 73.1392 153.762 70.8551 153.762 68.4734C153.762 66.0917 154.708 63.8075 156.392 62.1234ZM162.742 61.8879C160.995 61.8879 159.32 62.5817 158.085 63.8167C156.85 65.0517 156.156 66.7268 156.156 68.4734C156.156 70.2199 156.85 71.895 158.085 73.13C159.32 74.365 160.995 75.0589 162.742 75.0589C164.489 75.0589 166.164 74.365 167.399 73.13C168.634 71.895 169.327 70.2199 169.327 68.4734C169.327 66.7268 168.634 65.0517 167.399 63.8167C166.164 62.5817 164.489 61.8879 162.742 61.8879Z" fill="#0CAF89"/>
</g>
<path d="M39.6812 118.5V108.318H40.9142V112.852H46.3431V108.318H47.5761V118.5H46.3431V113.946H40.9142V118.5H39.6812ZM53.0871 118.659C52.3513 118.659 51.7166 118.497 51.183 118.172C50.6527 117.844 50.2433 117.386 49.955 116.8C49.67 116.21 49.5274 115.524 49.5274 114.741C49.5274 113.959 49.67 113.27 49.955 112.673C50.2433 112.073 50.6444 111.606 51.1581 111.271C51.6752 110.933 52.2784 110.764 52.9678 110.764C53.3655 110.764 53.7583 110.83 54.146 110.963C54.5338 111.096 54.8868 111.311 55.205 111.609C55.5232 111.904 55.7767 112.295 55.9656 112.783C56.1546 113.27 56.249 113.87 56.249 114.582V115.08H50.3627V114.065H55.0558C55.0558 113.634 54.9697 113.25 54.7973 112.912C54.6283 112.574 54.3863 112.307 54.0715 112.112C53.7599 111.916 53.392 111.818 52.9678 111.818C52.5004 111.818 52.0961 111.934 51.7547 112.166C51.4166 112.395 51.1565 112.693 50.9742 113.061C50.7919 113.429 50.7007 113.823 50.7007 114.244V114.92C50.7007 115.497 50.8002 115.986 50.999 116.387C51.2012 116.785 51.4813 117.088 51.8392 117.297C52.1972 117.502 52.6131 117.605 53.0871 117.605C53.3953 117.605 53.6737 117.562 53.9223 117.476C54.1742 117.386 54.3913 117.254 54.5736 117.078C54.7559 116.899 54.8968 116.677 54.9962 116.412L56.1297 116.73C56.0104 117.115 55.8099 117.453 55.5281 117.744C55.2464 118.033 54.8984 118.258 54.4841 118.42C54.0698 118.58 53.6041 118.659 53.0871 118.659ZM67.0821 114.145V115.239H62.8662V114.145H67.0821ZM63.1446 110.864V118.5H61.9713V110.864H63.1446ZM67.977 110.864V118.5H66.8037V110.864H67.977ZM72.3669 118.679C71.883 118.679 71.4439 118.588 71.0494 118.406C70.655 118.22 70.3418 117.953 70.1098 117.605C69.8778 117.254 69.7618 116.83 69.7618 116.332C69.7618 115.895 69.848 115.54 70.0203 115.268C70.1927 114.993 70.423 114.778 70.7114 114.622C70.9997 114.466 71.3179 114.35 71.6659 114.274C72.0173 114.195 72.3702 114.132 72.7249 114.085C73.1889 114.026 73.5651 113.981 73.8534 113.951C74.1451 113.918 74.3572 113.863 74.4898 113.787C74.6257 113.711 74.6936 113.578 74.6936 113.389V113.349C74.6936 112.859 74.5594 112.478 74.2909 112.206C74.0258 111.934 73.6231 111.798 73.0828 111.798C72.5227 111.798 72.0835 111.921 71.7654 112.166C71.4472 112.411 71.2235 112.673 71.0942 112.952L69.9806 112.554C70.1794 112.09 70.4446 111.729 70.776 111.47C71.1108 111.208 71.4753 111.026 71.8698 110.923C72.2675 110.817 72.6586 110.764 73.0431 110.764C73.2883 110.764 73.57 110.794 73.8882 110.854C74.2097 110.91 74.5196 111.028 74.8179 111.207C75.1195 111.386 75.3698 111.656 75.5686 112.017C75.7675 112.378 75.8669 112.862 75.8669 113.469V118.5H74.6936V117.466H74.634C74.5544 117.632 74.4218 117.809 74.2362 117.998C74.0506 118.187 73.8037 118.348 73.4955 118.48C73.1872 118.613 72.8111 118.679 72.3669 118.679ZM72.5459 117.625C73.0099 117.625 73.401 117.534 73.7192 117.352C74.0407 117.169 74.2826 116.934 74.445 116.646C74.6108 116.357 74.6936 116.054 74.6936 115.736V114.662C74.6439 114.722 74.5345 114.776 74.3655 114.826C74.1998 114.872 74.0075 114.914 73.7888 114.95C73.5734 114.983 73.3629 115.013 73.1574 115.04C72.9552 115.063 72.7912 115.083 72.6652 115.099C72.3603 115.139 72.0753 115.204 71.8101 115.293C71.5483 115.379 71.3361 115.51 71.1737 115.686C71.0146 115.858 70.9351 116.094 70.9351 116.392C70.9351 116.8 71.0859 117.108 71.3875 117.317C71.6924 117.522 72.0786 117.625 72.5459 117.625ZM79.1817 116.77L82.8607 110.864H84.213V118.5H83.0397V112.594L79.3806 118.5H78.0084V110.864H79.1817V116.77ZM82.0851 108.318H83.1789C83.1789 108.855 82.9933 109.294 82.6221 109.636C82.2509 109.977 81.7471 110.148 81.1107 110.148C80.4843 110.148 79.9855 109.977 79.6143 109.636C79.2464 109.294 79.0624 108.855 79.0624 108.318H80.1562C80.1562 108.577 80.2274 108.804 80.3699 108.999C80.5158 109.195 80.7627 109.293 81.1107 109.293C81.4587 109.293 81.7073 109.195 81.8564 108.999C82.0089 108.804 82.0851 108.577 82.0851 108.318ZM85.5466 120.688V117.406H86.183C86.3387 117.244 86.473 117.068 86.5857 116.879C86.6984 116.69 86.7961 116.467 86.879 116.208C86.9652 115.946 87.0381 115.628 87.0977 115.254C87.1574 114.876 87.2104 114.42 87.2568 113.886L87.5154 110.864H92.3676V117.406H93.5409V120.688H92.3676V118.5H86.7199V120.688H85.5466ZM87.5154 117.406H91.1943V111.957H88.6091L88.4102 113.886C88.3274 114.685 88.2246 115.383 88.102 115.979C87.9794 116.576 87.7838 117.052 87.5154 117.406ZM98.3 118.659C97.5642 118.659 96.9295 118.497 96.3959 118.172C95.8656 117.844 95.4562 117.386 95.1679 116.8C94.8828 116.21 94.7403 115.524 94.7403 114.741C94.7403 113.959 94.8828 113.27 95.1679 112.673C95.4562 112.073 95.8573 111.606 96.371 111.271C96.8881 110.933 97.4913 110.764 98.1807 110.764C98.5784 110.764 98.9711 110.83 99.3589 110.963C99.7467 111.096 100.1 111.311 100.418 111.609C100.736 111.904 100.99 112.295 101.179 112.783C101.367 113.27 101.462 113.87 101.462 114.582V115.08H95.5756V114.065H100.269C100.269 113.634 100.183 113.25 100.01 112.912C99.8412 112.574 99.5992 112.307 99.2844 112.112C98.9728 111.916 98.6049 111.818 98.1807 111.818C97.7133 111.818 97.309 111.934 96.9676 112.166C96.6295 112.395 96.3693 112.693 96.1871 113.061C96.0048 113.429 95.9136 113.823 95.9136 114.244V114.92C95.9136 115.497 96.0131 115.986 96.2119 116.387C96.4141 116.785 96.6942 117.088 97.0521 117.297C97.4101 117.502 97.826 117.605 98.3 117.605C98.6082 117.605 98.8866 117.562 99.1352 117.476C99.3871 117.386 99.6042 117.254 99.7865 117.078C99.9688 116.899 100.11 116.677 100.209 116.412L101.343 116.73C101.223 117.115 101.023 117.453 100.741 117.744C100.459 118.033 100.111 118.258 99.697 118.42C99.2827 118.58 98.817 118.659 98.3 118.659ZM108.358 114.145V115.239H104.142V114.145H108.358ZM104.42 110.864V118.5H103.247V110.864H104.42ZM109.252 110.864V118.5H108.079V110.864H109.252ZM114.497 118.659C113.808 118.659 113.203 118.495 112.683 118.167C112.166 117.839 111.761 117.38 111.47 116.79C111.181 116.2 111.037 115.51 111.037 114.722C111.037 113.926 111.181 113.232 111.47 112.638C111.761 112.045 112.166 111.585 112.683 111.256C113.203 110.928 113.808 110.764 114.497 110.764C115.187 110.764 115.79 110.928 116.307 111.256C116.827 111.585 117.232 112.045 117.52 112.638C117.812 113.232 117.958 113.926 117.958 114.722C117.958 115.51 117.812 116.2 117.52 116.79C117.232 117.38 116.827 117.839 116.307 118.167C115.79 118.495 115.187 118.659 114.497 118.659ZM114.497 117.605C115.021 117.605 115.452 117.471 115.79 117.202C116.128 116.934 116.378 116.581 116.541 116.143C116.703 115.706 116.784 115.232 116.784 114.722C116.784 114.211 116.703 113.736 116.541 113.295C116.378 112.854 116.128 112.498 115.79 112.226C115.452 111.954 115.021 111.818 114.497 111.818C113.974 111.818 113.543 111.954 113.205 112.226C112.867 112.498 112.617 112.854 112.454 113.295C112.292 113.736 112.21 114.211 112.21 114.722C112.21 115.232 112.292 115.706 112.454 116.143C112.617 116.581 112.867 116.934 113.205 117.202C113.543 117.471 113.974 117.605 114.497 117.605ZM128.797 114.145V115.239H124.581V114.145H128.797ZM124.859 110.864V118.5H123.686V110.864H124.859ZM129.692 110.864V118.5H128.519V110.864H129.692ZM133.008 116.77L136.687 110.864H138.039V118.5H136.866V112.594L133.207 118.5H131.835V110.864H133.008V116.77ZM147.228 118.659C146.539 118.659 145.934 118.495 145.413 118.167C144.896 117.839 144.492 117.38 144.2 116.79C143.912 116.2 143.768 115.51 143.768 114.722C143.768 113.926 143.912 113.232 144.2 112.638C144.492 112.045 144.896 111.585 145.413 111.256C145.934 110.928 146.539 110.764 147.228 110.764C147.917 110.764 148.521 110.928 149.038 111.256C149.558 111.585 149.962 112.045 150.251 112.638C150.542 113.232 150.688 113.926 150.688 114.722C150.688 115.51 150.542 116.2 150.251 116.79C149.962 117.38 149.558 117.839 149.038 118.167C148.521 118.495 147.917 118.659 147.228 118.659ZM147.228 117.605C147.752 117.605 148.182 117.471 148.521 117.202C148.859 116.934 149.109 116.581 149.271 116.143C149.434 115.706 149.515 115.232 149.515 114.722C149.515 114.211 149.434 113.736 149.271 113.295C149.109 112.854 148.859 112.498 148.521 112.226C148.182 111.954 147.752 111.818 147.228 111.818C146.704 111.818 146.273 111.954 145.935 112.226C145.597 112.498 145.347 112.854 145.185 113.295C145.022 113.736 144.941 114.211 144.941 114.722C144.941 115.232 145.022 115.706 145.185 116.143C145.347 116.581 145.597 116.934 145.935 117.202C146.273 117.471 146.704 117.605 147.228 117.605ZM151.664 120.688V117.406H152.3C152.456 117.244 152.59 117.068 152.703 116.879C152.816 116.69 152.913 116.467 152.996 116.208C153.082 115.946 153.155 115.628 153.215 115.254C153.275 114.876 153.328 114.42 153.374 113.886L153.633 110.864H158.485V117.406H159.658V120.688H158.485V118.5H152.837V120.688H151.664ZM153.633 117.406H157.312V111.957H154.726L154.527 113.886C154.445 114.685 154.342 115.383 154.219 115.979C154.097 116.576 153.901 117.052 153.633 117.406ZM166.326 114.145V115.239H162.11V114.145H166.326ZM162.389 110.864V118.5H161.215V110.864H162.389ZM167.221 110.864V118.5H166.048V110.864H167.221ZM172.466 118.659C171.777 118.659 171.172 118.495 170.652 118.167C170.134 117.839 169.73 117.38 169.438 116.79C169.15 116.2 169.006 115.51 169.006 114.722C169.006 113.926 169.15 113.232 169.438 112.638C169.73 112.045 170.134 111.585 170.652 111.256C171.172 110.928 171.777 110.764 172.466 110.764C173.156 110.764 173.759 110.928 174.276 111.256C174.796 111.585 175.201 112.045 175.489 112.638C175.781 113.232 175.926 113.926 175.926 114.722C175.926 115.51 175.781 116.2 175.489 116.79C175.201 117.38 174.796 117.839 174.276 118.167C173.759 118.495 173.156 118.659 172.466 118.659ZM172.466 117.605C172.99 117.605 173.421 117.471 173.759 117.202C174.097 116.934 174.347 116.581 174.509 116.143C174.672 115.706 174.753 115.232 174.753 114.722C174.753 114.211 174.672 113.736 174.509 113.295C174.347 112.854 174.097 112.498 173.759 112.226C173.421 111.954 172.99 111.818 172.466 111.818C171.943 111.818 171.512 111.954 171.174 112.226C170.835 112.498 170.585 112.854 170.423 113.295C170.26 113.736 170.179 114.211 170.179 114.722C170.179 115.232 170.26 115.706 170.423 116.143C170.585 116.581 170.835 116.934 171.174 117.202C171.512 117.471 171.943 117.605 172.466 117.605ZM182.43 110.864V111.957H178.891V118.5H177.717V110.864H182.43ZM186.849 118.659C186.16 118.659 185.555 118.495 185.034 118.167C184.517 117.839 184.113 117.38 183.821 116.79C183.533 116.2 183.389 115.51 183.389 114.722C183.389 113.926 183.533 113.232 183.821 112.638C184.113 112.045 184.517 111.585 185.034 111.256C185.555 110.928 186.16 110.764 186.849 110.764C187.538 110.764 188.142 110.928 188.659 111.256C189.179 111.585 189.583 112.045 189.872 112.638C190.163 113.232 190.309 113.926 190.309 114.722C190.309 115.51 190.163 116.2 189.872 116.79C189.583 117.38 189.179 117.839 188.659 118.167C188.142 118.495 187.538 118.659 186.849 118.659ZM186.849 117.605C187.373 117.605 187.804 117.471 188.142 117.202C188.48 116.934 188.73 116.581 188.892 116.143C189.055 115.706 189.136 115.232 189.136 114.722C189.136 114.211 189.055 113.736 188.892 113.295C188.73 112.854 188.48 112.498 188.142 112.226C187.804 111.954 187.373 111.818 186.849 111.818C186.325 111.818 185.894 111.954 185.556 112.226C185.218 112.498 184.968 112.854 184.806 113.295C184.643 113.736 184.562 114.211 184.562 114.722C184.562 115.232 184.643 115.706 184.806 116.143C184.968 116.581 185.218 116.934 185.556 117.202C185.894 117.471 186.325 117.605 186.849 117.605ZM199.14 118.659C198.451 118.659 197.846 118.495 197.325 118.167C196.808 117.839 196.404 117.38 196.112 116.79C195.824 116.2 195.68 115.51 195.68 114.722C195.68 113.926 195.824 113.232 196.112 112.638C196.404 112.045 196.808 111.585 197.325 111.256C197.846 110.928 198.451 110.764 199.14 110.764C199.829 110.764 200.433 110.928 200.95 111.256C201.47 111.585 201.874 112.045 202.163 112.638C202.454 113.232 202.6 113.926 202.6 114.722C202.6 115.51 202.454 116.2 202.163 116.79C201.874 117.38 201.47 117.839 200.95 118.167C200.433 118.495 199.829 118.659 199.14 118.659ZM199.14 117.605C199.664 117.605 200.095 117.471 200.433 117.202C200.771 116.934 201.021 116.581 201.183 116.143C201.346 115.706 201.427 115.232 201.427 114.722C201.427 114.211 201.346 113.736 201.183 113.295C201.021 112.854 200.771 112.498 200.433 112.226C200.095 111.954 199.664 111.818 199.14 111.818C198.616 111.818 198.185 111.954 197.847 112.226C197.509 112.498 197.259 112.854 197.097 113.295C196.934 113.736 196.853 114.211 196.853 114.722C196.853 115.232 196.934 115.706 197.097 116.143C197.259 116.581 197.509 116.934 197.847 117.202C198.185 117.471 198.616 117.605 199.14 117.605ZM210.059 108L210.655 108.716C210.423 108.941 210.155 109.099 209.85 109.188C209.545 109.278 209.2 109.332 208.816 109.352C208.431 109.372 208.004 109.392 207.533 109.412C207.003 109.432 206.564 109.561 206.216 109.8C205.868 110.038 205.599 110.383 205.41 110.834C205.222 111.285 205.101 111.838 205.047 112.494H205.147C205.405 112.017 205.763 111.666 206.221 111.44C206.678 111.215 207.169 111.102 207.692 111.102C208.289 111.102 208.826 111.241 209.303 111.52C209.78 111.798 210.158 112.211 210.437 112.758C210.715 113.305 210.854 113.979 210.854 114.781C210.854 115.58 210.712 116.269 210.427 116.849C210.145 117.429 209.749 117.877 209.239 118.192C208.731 118.503 208.137 118.659 207.454 118.659C206.771 118.659 206.173 118.498 205.659 118.177C205.145 117.852 204.746 117.371 204.461 116.735C204.176 116.095 204.033 115.305 204.033 114.364V113.548C204.033 111.848 204.322 110.559 204.898 109.68C205.478 108.802 206.35 108.348 207.513 108.318C207.924 108.305 208.291 108.302 208.612 108.308C208.934 108.315 209.214 108.3 209.452 108.263C209.691 108.227 209.893 108.139 210.059 108ZM207.454 117.605C207.914 117.605 208.311 117.489 208.642 117.257C208.977 117.025 209.234 116.699 209.413 116.278C209.592 115.853 209.681 115.355 209.681 114.781C209.681 114.224 209.59 113.75 209.408 113.359C209.229 112.968 208.972 112.67 208.637 112.464C208.302 112.259 207.901 112.156 207.434 112.156C207.092 112.156 206.786 112.214 206.514 112.33C206.242 112.446 206.01 112.617 205.818 112.842C205.626 113.068 205.477 113.343 205.371 113.668C205.268 113.992 205.213 114.364 205.207 114.781C205.207 115.636 205.407 116.321 205.808 116.835C206.209 117.348 206.758 117.605 207.454 117.605ZM212.649 121.364V110.864H213.783V112.077H213.922C214.008 111.944 214.127 111.775 214.28 111.57C214.436 111.361 214.658 111.175 214.946 111.013C215.238 110.847 215.632 110.764 216.129 110.764C216.772 110.764 217.339 110.925 217.829 111.246C218.32 111.568 218.703 112.024 218.978 112.614C219.253 113.204 219.391 113.9 219.391 114.702C219.391 115.51 219.253 116.211 218.978 116.805C218.703 117.395 218.322 117.852 217.834 118.177C217.347 118.498 216.785 118.659 216.149 118.659C215.659 118.659 215.266 118.578 214.971 118.415C214.676 118.25 214.449 118.062 214.29 117.854C214.131 117.642 214.008 117.466 213.922 117.327H213.822V121.364H212.649ZM213.802 114.682C213.802 115.259 213.887 115.767 214.056 116.208C214.225 116.646 214.472 116.989 214.797 117.237C215.122 117.482 215.519 117.605 215.99 117.605C216.48 117.605 216.89 117.476 217.218 117.217C217.549 116.955 217.798 116.604 217.964 116.163C218.133 115.719 218.217 115.225 218.217 114.682C218.217 114.145 218.134 113.661 217.969 113.23C217.806 112.796 217.559 112.453 217.228 112.201C216.9 111.946 216.487 111.818 215.99 111.818C215.513 111.818 215.112 111.939 214.787 112.181C214.462 112.42 214.217 112.754 214.051 113.185C213.885 113.613 213.802 114.112 213.802 114.682ZM223.427 118.679C222.944 118.679 222.504 118.588 222.11 118.406C221.716 118.22 221.402 117.953 221.17 117.605C220.938 117.254 220.822 116.83 220.822 116.332C220.822 115.895 220.909 115.54 221.081 115.268C221.253 114.993 221.484 114.778 221.772 114.622C222.06 114.466 222.378 114.35 222.726 114.274C223.078 114.195 223.431 114.132 223.785 114.085C224.249 114.026 224.626 113.981 224.914 113.951C225.206 113.918 225.418 113.863 225.55 113.787C225.686 113.711 225.754 113.578 225.754 113.389V113.349C225.754 112.859 225.62 112.478 225.351 112.206C225.086 111.934 224.684 111.798 224.143 111.798C223.583 111.798 223.144 111.921 222.826 112.166C222.508 112.411 222.284 112.673 222.155 112.952L221.041 112.554C221.24 112.09 221.505 111.729 221.837 111.47C222.171 111.208 222.536 111.026 222.93 110.923C223.328 110.817 223.719 110.764 224.104 110.764C224.349 110.764 224.631 110.794 224.949 110.854C225.27 110.91 225.58 111.028 225.878 111.207C226.18 111.386 226.43 111.656 226.629 112.017C226.828 112.378 226.927 112.862 226.927 113.469V118.5H225.754V117.466H225.695C225.615 117.632 225.482 117.809 225.297 117.998C225.111 118.187 224.864 118.348 224.556 118.48C224.248 118.613 223.872 118.679 223.427 118.679ZM223.606 117.625C224.07 117.625 224.462 117.534 224.78 117.352C225.101 117.169 225.343 116.934 225.506 116.646C225.671 116.357 225.754 116.054 225.754 115.736V114.662C225.704 114.722 225.595 114.776 225.426 114.826C225.26 114.872 225.068 114.914 224.849 114.95C224.634 114.983 224.423 115.013 224.218 115.04C224.016 115.063 223.852 115.083 223.726 115.099C223.421 115.139 223.136 115.204 222.871 115.293C222.609 115.379 222.397 115.51 222.234 115.686C222.075 115.858 221.996 116.094 221.996 116.392C221.996 116.8 222.146 117.108 222.448 117.317C222.753 117.522 223.139 117.625 223.606 117.625ZM239.489 117.406L239.35 120.688H238.137V118.5H237.143V117.406H239.489ZM229.069 110.864H230.242V117.406H233.126V110.864H234.299V117.406H237.183V110.864H238.356V118.5H229.069V110.864ZM244.316 118.659C243.58 118.659 242.945 118.497 242.411 118.172C241.881 117.844 241.472 117.386 241.184 116.8C240.898 116.21 240.756 115.524 240.756 114.741C240.756 113.959 240.898 113.27 241.184 112.673C241.472 112.073 241.873 111.606 242.387 111.271C242.904 110.933 243.507 110.764 244.196 110.764C244.594 110.764 244.987 110.83 245.375 110.963C245.762 111.096 246.115 111.311 246.434 111.609C246.752 111.904 247.005 112.295 247.194 112.783C247.383 113.27 247.478 113.87 247.478 114.582V115.08H241.591V114.065H246.284C246.284 113.634 246.198 113.25 246.026 112.912C245.857 112.574 245.615 112.307 245.3 112.112C244.988 111.916 244.621 111.818 244.196 111.818C243.729 111.818 243.325 111.934 242.983 112.166C242.645 112.395 242.385 112.693 242.203 113.061C242.02 113.429 241.929 113.823 241.929 114.244V114.92C241.929 115.497 242.029 115.986 242.228 116.387C242.43 116.785 242.71 117.088 243.068 117.297C243.426 117.502 243.842 117.605 244.316 117.605C244.624 117.605 244.902 117.562 245.151 117.476C245.403 117.386 245.62 117.254 245.802 117.078C245.984 116.899 246.125 116.677 246.225 116.412L247.358 116.73C247.239 117.115 247.038 117.453 246.757 117.744C246.475 118.033 246.127 118.258 245.713 118.42C245.298 118.58 244.833 118.659 244.316 118.659ZM254.373 114.145V115.239H250.157V114.145H254.373ZM250.436 110.864V118.5H249.262V110.864H250.436ZM255.268 110.864V118.5H254.095V110.864H255.268ZM258.584 116.77L262.263 110.864H263.615V118.5H262.442V112.594L258.783 118.5H257.411V110.864H258.584V116.77ZM270.358 118.5V111.938H268.33C267.872 111.938 267.513 112.044 267.251 112.256C266.989 112.468 266.858 112.759 266.858 113.131C266.858 113.495 266.976 113.782 267.211 113.991C267.45 114.2 267.776 114.304 268.19 114.304H270.656V115.398H268.19C267.673 115.398 267.228 115.307 266.853 115.124C266.479 114.942 266.19 114.682 265.988 114.344C265.786 114.002 265.685 113.598 265.685 113.131C265.685 112.66 265.791 112.256 266.003 111.918C266.215 111.58 266.518 111.319 266.913 111.137C267.31 110.955 267.783 110.864 268.33 110.864H271.472V118.5H270.358ZM265.267 118.5L267.435 114.702H268.707L266.54 118.5H265.267Z" fill="#8C8D98"/>
<defs>
<clipPath id="clip0_802_265107">
<rect width="44" height="44" fill="white" transform="translate(133.5 43.5)"/>
</clipPath>
</defs>
</svg>
